<mxfile host="app.diagrams.net" agent="Mozilla/5.0 (Windows NT 10.0; Win64; x64) AppleWebKit/537.36 (KHTML, like Gecko) Chrome/129.0.0.0 Safari/537.36" version="24.7.17">
  <diagram id="C5RBs43oDa-KdzZeNtuy" name="Page-1">
    <mxGraphModel dx="880" dy="1595" grid="1" gridSize="10" guides="1" tooltips="1" connect="1" arrows="1" fold="1" page="1" pageScale="1" pageWidth="827" pageHeight="1169" math="0" shadow="0">
      <root>
        <mxCell id="WIyWlLk6GJQsqaUBKTNV-0" />
        <mxCell id="WIyWlLk6GJQsqaUBKTNV-1" parent="WIyWlLk6GJQsqaUBKTNV-0" />
        <mxCell id="zkfFHV4jXpPFQw0GAbJ--0" value="Integrante" style="swimlane;fontStyle=0;align=center;verticalAlign=top;childLayout=stackLayout;horizontal=1;startSize=26;horizontalStack=0;resizeParent=1;resizeLast=0;collapsible=1;marginBottom=0;rounded=0;shadow=0;strokeWidth=1;" parent="WIyWlLk6GJQsqaUBKTNV-1" vertex="1">
          <mxGeometry x="220" y="120" width="160" height="216" as="geometry">
            <mxRectangle x="230" y="140" width="160" height="26" as="alternateBounds" />
          </mxGeometry>
        </mxCell>
        <mxCell id="zkfFHV4jXpPFQw0GAbJ--1" value="#nombre:string" style="text;align=left;verticalAlign=top;spacingLeft=4;spacingRight=4;overflow=hidden;rotatable=0;points=[[0,0.5],[1,0.5]];portConstraint=eastwest;" parent="zkfFHV4jXpPFQw0GAbJ--0" vertex="1">
          <mxGeometry y="26" width="160" height="26" as="geometry" />
        </mxCell>
        <mxCell id="zkfFHV4jXpPFQw0GAbJ--2" value="#apellido:string" style="text;align=left;verticalAlign=top;spacingLeft=4;spacingRight=4;overflow=hidden;rotatable=0;points=[[0,0.5],[1,0.5]];portConstraint=eastwest;rounded=0;shadow=0;html=0;" parent="zkfFHV4jXpPFQw0GAbJ--0" vertex="1">
          <mxGeometry y="52" width="160" height="26" as="geometry" />
        </mxCell>
        <mxCell id="zkfFHV4jXpPFQw0GAbJ--3" value="#fechaIngreso:dateTime" style="text;align=left;verticalAlign=top;spacingLeft=4;spacingRight=4;overflow=hidden;rotatable=0;points=[[0,0.5],[1,0.5]];portConstraint=eastwest;rounded=0;shadow=0;html=0;" parent="zkfFHV4jXpPFQw0GAbJ--0" vertex="1">
          <mxGeometry y="78" width="160" height="26" as="geometry" />
        </mxCell>
        <mxCell id="uoAJyQHmBSYGvsSrfdtf-6" value="#fechaNacimiento:dateTime" style="text;align=left;verticalAlign=top;spacingLeft=4;spacingRight=4;overflow=hidden;rotatable=0;points=[[0,0.5],[1,0.5]];portConstraint=eastwest;rounded=0;shadow=0;html=0;" vertex="1" parent="zkfFHV4jXpPFQw0GAbJ--0">
          <mxGeometry y="104" width="160" height="26" as="geometry" />
        </mxCell>
        <mxCell id="uoAJyQHmBSYGvsSrfdtf-1" value="#edad:int" style="text;align=left;verticalAlign=top;spacingLeft=4;spacingRight=4;overflow=hidden;rotatable=0;points=[[0,0.5],[1,0.5]];portConstraint=eastwest;rounded=0;shadow=0;html=0;" vertex="1" parent="zkfFHV4jXpPFQw0GAbJ--0">
          <mxGeometry y="130" width="160" height="26" as="geometry" />
        </mxCell>
        <mxCell id="zkfFHV4jXpPFQw0GAbJ--4" value="" style="line;html=1;strokeWidth=1;align=left;verticalAlign=middle;spacingTop=-1;spacingLeft=3;spacingRight=3;rotatable=0;labelPosition=right;points=[];portConstraint=eastwest;" parent="zkfFHV4jXpPFQw0GAbJ--0" vertex="1">
          <mxGeometry y="156" width="160" height="8" as="geometry" />
        </mxCell>
        <mxCell id="uoAJyQHmBSYGvsSrfdtf-8" value="+ mostrarInfo():void" style="text;align=left;verticalAlign=top;spacingLeft=4;spacingRight=4;overflow=hidden;rotatable=0;points=[[0,0.5],[1,0.5]];portConstraint=eastwest;" vertex="1" parent="zkfFHV4jXpPFQw0GAbJ--0">
          <mxGeometry y="164" width="160" height="26" as="geometry" />
        </mxCell>
        <mxCell id="zkfFHV4jXpPFQw0GAbJ--5" value="+ calcularEdad():int" style="text;align=left;verticalAlign=top;spacingLeft=4;spacingRight=4;overflow=hidden;rotatable=0;points=[[0,0.5],[1,0.5]];portConstraint=eastwest;" parent="zkfFHV4jXpPFQw0GAbJ--0" vertex="1">
          <mxGeometry y="190" width="160" height="26" as="geometry" />
        </mxCell>
        <mxCell id="zkfFHV4jXpPFQw0GAbJ--6" value="Tester" style="swimlane;fontStyle=0;align=center;verticalAlign=top;childLayout=stackLayout;horizontal=1;startSize=26;horizontalStack=0;resizeParent=1;resizeLast=0;collapsible=1;marginBottom=0;rounded=0;shadow=0;strokeWidth=1;" parent="WIyWlLk6GJQsqaUBKTNV-1" vertex="1">
          <mxGeometry x="120" y="360" width="160" height="120" as="geometry">
            <mxRectangle x="130" y="380" width="160" height="26" as="alternateBounds" />
          </mxGeometry>
        </mxCell>
        <mxCell id="zkfFHV4jXpPFQw0GAbJ--7" value="- tipoTesting: string" style="text;align=left;verticalAlign=top;spacingLeft=4;spacingRight=4;overflow=hidden;rotatable=0;points=[[0,0.5],[1,0.5]];portConstraint=eastwest;" parent="zkfFHV4jXpPFQw0GAbJ--6" vertex="1">
          <mxGeometry y="26" width="160" height="26" as="geometry" />
        </mxCell>
        <mxCell id="zkfFHV4jXpPFQw0GAbJ--8" value="Average Mark" style="text;align=left;verticalAlign=top;spacingLeft=4;spacingRight=4;overflow=hidden;rotatable=0;points=[[0,0.5],[1,0.5]];portConstraint=eastwest;rounded=0;shadow=0;html=0;" parent="zkfFHV4jXpPFQw0GAbJ--6" vertex="1">
          <mxGeometry y="52" width="160" height="26" as="geometry" />
        </mxCell>
        <mxCell id="zkfFHV4jXpPFQw0GAbJ--9" value="" style="line;html=1;strokeWidth=1;align=left;verticalAlign=middle;spacingTop=-1;spacingLeft=3;spacingRight=3;rotatable=0;labelPosition=right;points=[];portConstraint=eastwest;" parent="zkfFHV4jXpPFQw0GAbJ--6" vertex="1">
          <mxGeometry y="78" width="160" height="8" as="geometry" />
        </mxCell>
        <mxCell id="uoAJyQHmBSYGvsSrfdtf-4" value="+ mostrarInfo():void" style="text;align=left;verticalAlign=top;spacingLeft=4;spacingRight=4;overflow=hidden;rotatable=0;points=[[0,0.5],[1,0.5]];portConstraint=eastwest;" vertex="1" parent="zkfFHV4jXpPFQw0GAbJ--6">
          <mxGeometry y="86" width="160" height="26" as="geometry" />
        </mxCell>
        <mxCell id="zkfFHV4jXpPFQw0GAbJ--12" value="" style="endArrow=block;endSize=10;endFill=0;shadow=0;strokeWidth=1;rounded=0;curved=0;edgeStyle=elbowEdgeStyle;elbow=vertical;" parent="WIyWlLk6GJQsqaUBKTNV-1" source="zkfFHV4jXpPFQw0GAbJ--6" target="zkfFHV4jXpPFQw0GAbJ--0" edge="1">
          <mxGeometry width="160" relative="1" as="geometry">
            <mxPoint x="200" y="203" as="sourcePoint" />
            <mxPoint x="200" y="203" as="targetPoint" />
          </mxGeometry>
        </mxCell>
        <mxCell id="zkfFHV4jXpPFQw0GAbJ--13" value="Desarrollador" style="swimlane;fontStyle=0;align=center;verticalAlign=top;childLayout=stackLayout;horizontal=1;startSize=26;horizontalStack=0;resizeParent=1;resizeLast=0;collapsible=1;marginBottom=0;rounded=0;shadow=0;strokeWidth=1;" parent="WIyWlLk6GJQsqaUBKTNV-1" vertex="1">
          <mxGeometry x="330" y="360" width="160" height="138" as="geometry">
            <mxRectangle x="340" y="380" width="170" height="26" as="alternateBounds" />
          </mxGeometry>
        </mxCell>
        <mxCell id="zkfFHV4jXpPFQw0GAbJ--14" value="- lenguajPrincipal: string" style="text;align=left;verticalAlign=top;spacingLeft=4;spacingRight=4;overflow=hidden;rotatable=0;points=[[0,0.5],[1,0.5]];portConstraint=eastwest;" parent="zkfFHV4jXpPFQw0GAbJ--13" vertex="1">
          <mxGeometry y="26" width="160" height="26" as="geometry" />
        </mxCell>
        <mxCell id="uoAJyQHmBSYGvsSrfdtf-7" value="- aniosAntiguedad: int" style="text;align=left;verticalAlign=top;spacingLeft=4;spacingRight=4;overflow=hidden;rotatable=0;points=[[0,0.5],[1,0.5]];portConstraint=eastwest;" vertex="1" parent="zkfFHV4jXpPFQw0GAbJ--13">
          <mxGeometry y="52" width="160" height="26" as="geometry" />
        </mxCell>
        <mxCell id="zkfFHV4jXpPFQw0GAbJ--15" value="" style="line;html=1;strokeWidth=1;align=left;verticalAlign=middle;spacingTop=-1;spacingLeft=3;spacingRight=3;rotatable=0;labelPosition=right;points=[];portConstraint=eastwest;" parent="zkfFHV4jXpPFQw0GAbJ--13" vertex="1">
          <mxGeometry y="78" width="160" height="8" as="geometry" />
        </mxCell>
        <mxCell id="uoAJyQHmBSYGvsSrfdtf-9" value="+ mostrarInfo():void" style="text;align=left;verticalAlign=top;spacingLeft=4;spacingRight=4;overflow=hidden;rotatable=0;points=[[0,0.5],[1,0.5]];portConstraint=eastwest;" vertex="1" parent="zkfFHV4jXpPFQw0GAbJ--13">
          <mxGeometry y="86" width="160" height="26" as="geometry" />
        </mxCell>
        <mxCell id="uoAJyQHmBSYGvsSrfdtf-5" value="+ calcularAntiguedad():int" style="text;align=left;verticalAlign=top;spacingLeft=4;spacingRight=4;overflow=hidden;rotatable=0;points=[[0,0.5],[1,0.5]];portConstraint=eastwest;" vertex="1" parent="zkfFHV4jXpPFQw0GAbJ--13">
          <mxGeometry y="112" width="160" height="26" as="geometry" />
        </mxCell>
        <mxCell id="zkfFHV4jXpPFQw0GAbJ--16" value="" style="endArrow=block;endSize=10;endFill=0;shadow=0;strokeWidth=1;rounded=0;curved=0;edgeStyle=elbowEdgeStyle;elbow=vertical;" parent="WIyWlLk6GJQsqaUBKTNV-1" source="zkfFHV4jXpPFQw0GAbJ--13" target="zkfFHV4jXpPFQw0GAbJ--0" edge="1">
          <mxGeometry width="160" relative="1" as="geometry">
            <mxPoint x="210" y="373" as="sourcePoint" />
            <mxPoint x="310" y="271" as="targetPoint" />
          </mxGeometry>
        </mxCell>
        <mxCell id="uoAJyQHmBSYGvsSrfdtf-0" value="" style="shape=image;verticalLabelPosition=bottom;labelBackgroundColor=default;verticalAlign=top;aspect=fixed;imageAspect=0;image=data:image/png,iVBORw0KGgoAAAANSUhEUgAAAwkAAAFuCAYAAADK9VRHAAAAAXNSR0IArs4c6QAAAARnQU1BAACxjwv8YQUAAAAJcEhZcwAADsMAAA7DAcdvqGQAAONcSURBVHhe7L1tqB1Vuu9b3vPlbNjmTT8cREWMgmKLYkcFMYJeNN3aVxSTnY6KNCjKcktf7O7tS4yEjS8xfcSAdJu0KMjGbcwxG8VrfImc+GH19narW1aj4gdNI6H1wiG+RL/s82nd+Rur/ivPHBlVNeasmnO9PT+oVTVGjfGMZzzjGaNGzRpV67jpHoXjOI7jOI7jOE7J/1HuHcdxHMdxHMdxAn6T4DiO4ziO4zhOH36T4DiO4ziO4zhOH2O5SXjggQeKv/71r2XIqeMnP/lJ2Jxu+Prrr4sXX3yxuPDCC4vf/va3Zezw/PGPfyyOO+64sB8W9DjjjDOCHPT6y1/+Up5ZmFCfVatWBVunoO9T1zvvvLOM6Z7XX389yKecNtAWyKE+46ALf3LywRf/8Ic/hP7XxXiwmGjqx+Ogq37cJV1fQ5gPYee5mhONe4xromv7toFxAT3msg/MN1rfJGBMOT0dGyPT4JZf/epXxebNm1tNhihHjk05NCQDCptfYJ06li1bVnzwwQdlaG6hr3z44YfF559/XkxOThbffvttsW3btvLs4uTtt98uJiYmiqeeeqqM6Z6zzjqreP/998tQO7755pvQLguBeKxdSDBJmoux+5RTTikOHjxYhpz5RJf9GLroH0eOHAnbfLmGdMF8G+PGeY2u8gnmpytXrizefPPN4oQTTihjnYKvG7Vh48aN0+vWrZvevn37dO9GYLpnZL6WNL1r164yxQyHDx+eXr169XRvcC5jBmPNmjVhU372lE1ZvclWiHOcKvATfHSumS96jJPeDULo/6OGcaiDIS20TxdyRs3u3bsXtC/hF3MxdlPmUuyHC4Wu+nGX/YPxazH5zHwc48ZlX+ahKSh7amqqDDmi1ZMEfgm6/PLLw53XPffcUzzyyCPFO++8E8799//+38NecGd2++23h6cBg8KvTdxl7tixozj99NNDHHvuCHs3CiHsOM78hCcI/stMt2jJwEKFsXvnzp1lyHG6pev+4ePX4gCfqHqKyBz2vPPOK0OOaHWTwET9jjvuKEMzYOR169aFx1kxxL/11ltDLzv65JNPyqOj3HXXXeXRUViCpDXfqeVPFpYxaY0qNyMsByEfcUJrNbXMKdY/XgrFOwU///nPQz5kEqd4kYrTesz4nQTJVx5kEwfcqGm5F3Hk5ViP8evy1oHu1oboJiRT9Y1tzDF6IINj0lGusO0Tb1qnacsnP3UUTXXOpa6MFJRrfUVx0gWQyTGbtQk6Ug7ce++94Zi0Ann4lnTBvradqmxKPrWFbWt0xE+JQz/JtToBbaFy2VL+gRzilcbqxjlbf8sgdUKObMQ+1iGF2oI8lMMSrhgrFx2a2riOpvqAbK162HEkZlh/Ig0/zrBcIOVLykM8+mIDi7VJvFGGfIo0pEU/NurKxjnJJ976lM2rtEonPfC5TZs2heO1a9eG86q/zcMW+6P0kUzq1wT2kv+i98MPP1ye6afJbhbpxyasTUVbH7djZWxriNsDudRV/iB92ERKT3SL+zFlqy05L99X2GJtzMZxnf0sXffjqv5R59eErf517U8byN7oEftnnZy4f1vQTzbmPLrm+EiKJr/JJeVfqo/qyCbURjYOsL/0aWq/Jii/zhcISwfSaQwmXj9M6DzEdWxjr0VJ+UShU3o3A+FRcgqKrDpXBzLJyxKjuiVLPGLUsiQeEVIW+aoea5NOj95Iu2/fvtnlU0AcG7JIi2yWVGn5BHvilMaWKRnE8YgLuSKOI4yOqXTI1/It0lC+0vB4TMuuKA/9Sc++KW8V6E8+2ZD0yJfdOa+lY5xX+RyzUTZh4imbZWgqU+doJ2CvtEJxajO1D3mhrs5VKK1oKiMF5Sqd8lldqCdyOYd9sHVMrAdQJmklkz1h6tRkU9KSjnPEKz3ls5HOtpPViXirD7JUD0H9yCMfkh74AJBH9bcMWifkkUb2VXlVcN7KJ0w+qwe6Y4M4TWz/GOlgaaoPIJ82Uf2oU11Zbf0pVRfKZKN82hf9yCcdiSOs9lP7Wtkqj7zIp14ck5d8nLM+hR6Sb/OSFrvZdhaks/UGZJCP8oBz6GXHK8LIA52vA5noE9skth3n4zTIVr1SpPzexpG3jY/T9rI7sshPPtmMONmZY5vG1q1JT0BmrLvsqzKs7thUoB/pVB9rP/yrDvKQTnUijHyr27D9OE5Dfvkm8ciRfYmn/tRbYc5ZkIcvkhdZspcdL5vk2HyWnPEllya/AbVjHeRFjvwLeehEnUSqLnFc7rWWONteKZp8gXDdGJyqN2mQKXtJf46dXruU+87AsDJ4irjTDIIamI2GTZWBE9t49CE9DV8FDkcanNkih7Ro0McZAT3i+kiedU4c117sICeOcijDwqCEfA3Asktsj5y8McTHstQRlQdbWnvKJnYQIhyXDdQttilxpBeURzsKtWGqs1f5WUycP6eMFGpbW1fpYgcVxcWkysAe9kIDsjl7QbjKpnFZqfIVJ93V1tYX8GXrf7RzXCZ2s+2fKmuQOsXpiIttZKHNSRP3V3S3eqBjKo1t9xTD1od8sa3i8mPa+BNhayfasWm8khzbbxRndUj1U8jp++SNx0TirF+l6o2OTeNVrHuTfZFXZRPZLsduKVJtkoojPKiPQ9O1jLrlXHty9UzFpdpS6WT7lB4aW6yvxIy6HyPD2gGq/BpZtq3ld5YqecSrnXLkpOyMTk3jSy5NfgMpHWIoN7YVMqzdU3LiOOTYPFXX2lRcTJMvkL9uDE7pi0xrm9SYtpTp/BOozz77bHicq3cHYniUM+xb7KwZ6zl/+FIKj416Dtz3qInHdTxiJF6Pk0488cRwLqfMk08+uTyagaVRlCdZbNdcc004p0duPJbasGFDOB4FL7/8cqir1eHRRx8N5z799NOwF7HNB8krqDNYWSwp6/nK7Ho96symR6c333xziI857bTTyqOjrFixIrkmkDYTlMdyNR4D8qjw4osvLs8cS5WfNTFIGbmk1q1qGUUVnMce5557bhkzw/r168OeNrSkbDostKfalfbk0WzcT/bs2XNMmdit7nHsoHVavnx5eXSUAwcOlEfHwteS4KKLLgp7Edsf3VnWYv2f+jFG4Lu55NbnkksuCXbh0bXks/RgWAb1p5zxSrb+6quvwt5y0kknlUczMFbH5Pb9lO4aW6rIGa96F/PiqquumvW/JvuSjvQWvqRiybFbWwb1cdq56VpG3UZ57RFxW/YmxmF/6NChsKfNWCZjYUzpTd5CH6xi3P1YpPyaMY1rAnan/8rvmvjFL34R9upPw8jJHV9yyPGbXCg3thU+Rx0HoctrbZMvDDMGk56taUxbqnR6k8CAeuqpp7a6MDbBpJAXIelUXDDohPZGAZj4xFtqnWMODIgpeeiA0+Oco6Z395vUIcfObfJWQb2xORcB2vv5558vzzRz//33h8+Mac0sPvPee++Fl9otDCZnnnlmuBDt37+/jO2WcZSRC5/Ys6QmWaOAiwoXgldeeaXYsmXL7ASgC0ZVJ8nNuUGcnJxM+v8wN5dN9bn00ktnL8RcpLlQ0VfGSd14BUw86Le/+93vgm5sL730UsiXY5M2fT+HpvGKizk/QuGr+C1rr+tgfM65sW6y21yR0olrGe0wjmtPCv1YZElNHJv6+1z14xRMEPmR5O677y4uu+yy4Ic5xD8sDisHuhwvU7Yadg7UBV1ea+t8YZgxeNRj2kKns5sEJntffvnlSG4QmMjEFwMcggsGDRvfracuHE0Xkyr4lSnlZMhTJ447d9dwEY9BJ+zSxLB5U7+gYW+46aabQkf/7LPPwq8E8S9zdXCB4f8C8L8C+BWAF8zuu+++8JRIcAPBzQRfyuKLWV1dCCzjKGMQ9KtcDE9eRgU+wIujTLpoWwbYFLRVjHyhjlHXKedX3jfeeKM8OsqwY0FOffAjJpZTU1Phe+9MGMZJ3XgFjFnPPPNM8d1334WLNr8y8ivwv/7rv4bzTbTp+znkjFdcY5jw8MMCv/g3tWfKf2Oa7DZXpMonblzXnhQpO/GjXQp+EGpi3P04hvowj6Dv0mcHmcN8//33YX/88ce3kgNdjpdVfjMo/IAXw41QztxDdH2tbfKFQcfgUY9pC51ObhJ0g3D11VeXMdXQkezSklz+5V/+pTzqhwucBiImORxv3bq1byDDqT/++OMylI9+VX3wwQfDXliHpC48AksNnDFxmpw8119/fbgzjidlTzzxRHH22WeXoTTD5OVxHfBVCAu/BCgPF1Qecw/zSweDC48x0Ym7f36BsjcIwGN4HkGnfrHqinGUEZNqb/ksj+zteR1fd911YT8K3n333bCvu5jRB/Bve1FAt48++qgMHcuo68SvPYAf1sGTRnSIJyGvvfZaeZRHbn3oI4rDr/hkM/1vkAtqG3LGK/TTZ6vpe/RBLqi5fblN328iZ7zSE0hg3KDOTz75ZBlzLIzPTABsu8Xk2K0OK7urSXvOtWyQaw90paeWCWk5DP0s5eeUVze2jLsfV8FSNp7K3HjjjWVMPuhAO9Dfh5XT5XiZ4ze5XHHFFaE+ts/B448/Hsqx1PlWl9faJl8YZgwe5Zi2KOhdJFrByx29QTa8EGI3Xh5JvXBDkfGLJU1QBvl6DtL3kqVe7KE8obheRwkvArH1OnHfS4AxyoP8GOI4hwzVi/oK5V2zZubrOmykifVSHOlJg17kQU/qh35slGP1VRx5ZWfthXREtiUnbwrS2DzobtsMndEd+QcPznzxROWz6aU1Ww+BPMnWRhz5lJb6UAZyiOMceShHulfVOYX0se2bU0YKpbPlShfaUeiFNdpaKK/VA3ixSmWjCxvH2FhU2ZRj0nHOxksn8gnppBe5pI/C7JGPPM7Rtup76k/YhvNWbqqsQeqEDwjSEWfTpVCd1Q7Ikq+rP0k+m9qVNLadUgxbH+STF7spjN1IW4XaQPUAld/kT8iW7RSvvNST8tHR2lftid7qf2pX6Y2+sqW1AVAmeUmT6vvKG9db7aU4tQ3lEqc2U7noxTntBXLlr5SvelaBXZBH+aqfbInuql+T3VJYn0B/5EoO5yhP9bSyqCdx1ndSyDeoM7LZ0E821HnkUE82tYe1SY6eoDjb5uhNnPxTNkeGIL38QrJIT5zCVcgvJB9Z8gH5hGzIRh2oG2k4Xwfly+7YxvqXraPkIxuQq3rLrkAYfZVXdVQ4Vw76E2exbYSebBxbHyG/rVMV8gvSpvwGUm0dQ3pkSC/0pmx0FTm+RVh2Qqb0k0yQ7Uhbh9LZ/NYXCCNDfkeYslV3lU16ZJGO89iZNISRSxrSsi11Wt0k4LRqsNRmnRLUwGrQXEhPWezlgGw0rHVYQcNqMMCpKbcKnEjylN5CHXB821nieskR2UiLnqQlXuB8GhApAxns1blAOmgT6mjEUYaViwybx56DurxVoJs6iupkweaqL7ZWR0OXlE9YaAvaRu1jN9leaYijbPTBdsRxrqnOFrWF3aCpjBSUY+UQTumSE8emdgfsJn1kc/lZVR0gjk+lrdJJPkiYPe1IuZRv+5XVDRtZ+8Ry29Sprp4xyLE+qjri65QrkKl+hy72XIqUnURdfYC+oLLYYlvFIFtp2araqUonXaA5Lz3Yqw05F49XHKOX1VMbeTgfx9s2rev7VXlTcaD2Q1/RNF6hN/E6b/NWYdsNPXV9QDblQZPdqpCuyKOt1V7YqarucVwdTdcyykNn2ULyY7vV6QkcSx82tRHx5NF5yollAzKtDMqTbevAxqPoxxD3D+mmTXUEbEccsolHPmHrX8TJjmypOubIoY7ExZCWfJxTe1oflCzJrqPOb2w7saXaU9h2RZ78xdLkW8RJF9WJtlR66iJdtNVB+ipfaBqDVTb2lX7sCbOlxrSlznH86RlzLPAoiKUmPOpezPBoi7Xevc5yzFKapQ5LCXjZK35cyePDG264YU5frnKcxQ797E9/+lNYe2thOULvAh7+OWXcN52FQ9fXHq3nXuzX7HHC8h2W8w479SJ/bwI71qWyztKl80+gVsE6MV6Ym+uvRThzBxcwPl+WmoQw4PXu8MuQ4zhdwxjM+wjnnHNOGXMUXvZbvXr1MZ9BdRyne4a91tGHv/jiC79BcMbG2G4SePmMm4S2b7YvBPTFg7n48sR8RnbhZTZeCuTXSzZuHvhUGV9AcBxnNGg84vOMPNHjqQKTDvofv07ynfalMD4vZrq89uAbfN2GPZszPHxghacy2JGvbf36178uz+RDf927d2/x0EMPlTGOMwZYbjRqtM5rKaD1htpY1+YcJV7XyZpC1qQuFf9wnLmE9bn0N9bc0v/Y0x+b1jg7858urz2pdeLuI8MTv3fhOAuFsb6T4DiO4ziO4zjO/Gdsy40cx3Ecx3Ecx1kY+E2C4ziO4ziO4zh9+E2C4ziO4ziO4zh9+E2C4ziO4ziO4zh9LNibBD7Zd8YZZxTHHXdc+LwYnwdbKPDZT/6xHPpTD8dZTPCZPz6xSb+0/s1nb/n8rf5B07DQ1x944IFi1apV4fOdjuM4juN0z4K8SWCCwLeG+e+8k5OTxbffflts27atPLswOOWUU4qDBw+WoYUJN2g5W5cTOSafCwnqnrKJNibS/I+IxTbZXbZsWfHBBx+UoRlSccNw/PHHhz393nEcx3Gc0bAgbxIeffTR4oILLgjH/PdebhYW0uSRf1jEhGmhw3+N5EaHr+iy8a/iQeHDhw8XExMTIa4LeALz3HPPlaGFAf6JLWSH7du3z9oH2/FPdfbv31+sXbs23CwsBk444YTi6quvLkNHwRY8PWsL/Wf58uVlyHEcx3GcUeDvJDhDwS/fO3bsqP0PrUwW+e+Q+i+gbWAJy8aNG8vQwuNnP/tZeXQUbMfymz//+c/hhmvnzp2+/MxxHMdxnHlBJzcJrDVm2QTLJ1gnHE90mOBpDbGWWJBH8AuxzgP5OWazTwhYy0x+uPfee8OxLYuJq9WDX2btv5NHFjLIwzFpmKSRj7SESc8xMvjVk/XP0l9y46cWtv5syLTlAnUkXjIefvjh8kw/eldB5TdNGu36bMpUGeS1NgbVg7SkiduB8yofm6jOxMXwqzBbE/GvypRn6xfbUmWy0VYqm2OWqrz11luz5wQ2kG9QN2QItS3nSUeZbNRVYemCPaqQfG3IBfaKszrF1D05wkbPPPNMOH7sscf6fKeubiA/5jz626cRyJFfcz62d5VtOJafIIPzHKvOxOm8yo19bRDwcbUDMuM6AmWrj5H2pZdeKs8cpUkvztf5t+xFHFvcjwfxF8dxHMdZ8Ey3ZPfu3eFfjetftm/evDn8+3HixZo1a8K/JT98+HDY9C/KlWZqamp648aNIY78xCNv9erVQXYM6eJ/bb5v374+PdgTpmyVSxryUtauXbtCWevWrQtpScc54pWe8tlId/DgwRBHXqsT8VYfZKkeQrJkA/KoPFsP8hDPeUAX0pCvCsqjDiqTOqpNiJMsaGoH0qKPykQWsmNbVyE9qqAc1c+Wrzajvsiw+tmyOcdmwXewrZWBTNsenKdc4jgvHbARdVQ6264x6CMfVR4hO5GmCuRbvVKgF2lsv6irG+fR2fqLtQ/2I7/sLf2lZ5VtqI/SEk9Y8cAxspHDpnaU3sLqKuI2JA/pVEfSE7Y2pp7EoR+orWw+aNKrzr9JT/64DKvrIP7iOI7jOAud1jcJXCjt5CC+oGsSwEVYcMzkxF5kdfG26RQXQxznLMizE3NAB6sLEGaCEMNkIC4rVb7iNDlRfdkLJht2ckF56GdhskE+1YMJDGE7OQJN1qz8GOlkbYd+xKmuue2gfLZNc0nZ0EI5mtAC5ZOeOgL1iNvG6oF8a1cgb6wr9rd1Ik9sf6Bsq09TndEXubGOhON2i5Fd1d4pZD+laaobMuN62fTkl21BPiffhSrbyKesfQD5xDf5EaTqG7chfdPmk0/YfMiObU5ft3XJ1avKv9Gjqgz1PY4H8RfHcRzHWci0Wm7EI3u+MHLyySeXMUVx3nnnMUss7rjjjhDmRdPehTosqRAc9yYvIa+WMAibTsRpYjjfu3gX5557bhkzw/r168P+5ZdfDntx2mmnlUftUX3Zs5SDpRnxF1yIv+qqq8rQDPHyk71794b9WWedFfbilltuCXuW2TRhbcdSoN7kKCxzgkHbwbZpF8hX0EHLOU488cRwTva65JJLgq1Y8iG9WfJRx549e4pNmzbNymRDHmVJBrA8JIa60y5agtNUFva67777wrsDks1ylPfffz/5om5bmup29tlnh3T4nNrP1oF6sZGWpTU333xzeaaflG1E/M7JoH7UBOPEN998M7sU6OKLLy7PzMASH/r2ZZddVsbMEL+43Na/GSNoV2trPpAAn376adgP6i+O4ziOs5AZy4vLTAJiRvF1kiNHjpRHM9gJwyhhAsJE65VXXim2bNky+5UfwSQl98bkhx9+KI9maPMVpIsuuqg8mmFc7VAHN1TxxtepgBsb3TAw4eNmwa4Jr2JycjIpt+6lamCyx7shtBntl7Ou/tZbbw03X48//ngIP/vss8Vtt90Wjtuiuv7oRz8Ke6irG/7NS89XXHFFce21186+WyCQx83BmjVrilNPPbV4/vnnyzPt6NqPuDk488wzi0OHDoUvPVnUH3JuWtvqtd18ecpuuhkYxl8cx3EcZ6HSyU3CJ598Uh4dRb+2AZPkqsmevnneBUwyUqxYsaI86h5uEPh8JZMH6lz1Mi//1yGHL7/8sjzqZ5hJWGzzcbVDHamJlY1j8vvUU08VU1NT4Rd6Jr5NvPHGG+XRUXIncEwAuUm5/fbbi2uuuaYxHxNz+zTh6aefnn1i1QYm99wgcQNif01vqhv63HPPPcVnn30W/Pzyyy+ffcpx0003hUk35/jFvqvP7nbpR7y0fP/99xfvvPNO8cgjj1Te2KXGmJi2elW9DG2fQgzqL47jOI6zUGl1k8ByByY1XOTtxZkJj37Vv/7668OeX1wtnOfXYpbpDEJqEqClNUzc7HkdX3fddWE/Ct59992wr1t6QD2ZrKV0F3r68OSTT4a90OdDr7zyyrDPhYkik85f/OIXIdx1OwyK2mjr1q19dkDPjz/+OBzzi7LOoQ+fWKUOdUtYWAJCu9tf0OG1114rj6qxX45iok0bxPZPoacJLD1hy3liVfcZWOqspxH8U0DJa6obdpFtyMNNKhNlLV1jidqGDRuy9Mulaz86cOBAeOJVle+kk04K+3jJYExbvciPr9kfN+CJJ56YXdY1rL84juM4zoJkuiV6wbF3IQ7HvOzHi4l6gZC9XrbUS4bsCduXPXsToiBHaUAvDtp0ehmZ9Ba9uMjLh5TJxjFlC71kjK7SD6Qj52y8dLIvDUsnvbQofRRmj3zkcY4XHfXCKHF68VFy0FHyOSaOfEBa8pC2DrWBrTu627qrjk3tUGXfJtCVfGzWXhbJpkzqxGbbgnpQrmxEmLQ6zzmFpbPalI36kweZqiNpCaf0QpbajTJJR/4cZPOqusaoba18dJO/xOegqW7saVMbJq3C1I/zlEP9rH+x1dlGvi9fFOTJ8SPpbv1I5bFxDGpT0hMnH1F9wfYV0rAxxkg/6kZcG/8mv2yBbMrWXiCryl/Iz3nyOI7jOM5ioPVNAnCh5AKpiy8XTAthTVDY7MQGdMHXpgt0UxyblcNkQBd69GFyIV1IF+cVcXwqbZVOyFc8eyYPlGsnFGB1Ix2TFU0yyCMIy5acjydpKchDemtjTagsTe0gOdrQM4c4X11e1Vtp7OSUc+gkGRzb8xxjG/LbeOqgfJyzk0LJ0mbrSx7ZWv6SC+WTv4mUL9kNGZRrfcBSVzfOYUPJ4rz1OY6pFxu2pQyOyYMvKJ822cbKZKN9LU1+lKozxHGkw47yB/VX5MVtbPsFZZOWdNRRft7Wv7GPbo4oK6438qQDe+svlI3O8c2H4ziO4yxUjuNP76LnLGBYBsE/l/OmHB8sjeI9Ef/CjeM4juM4i5GxfN3IWWTwNaKpqTLQg+PFFi6/uFQF/yHZbxAcx3Ecx1ms+JOERQBfAOIl1YMHDzZ+9rMTmET/9Kd8DmYmvGHDzH4xhfmq0Pnnz4R78HIxXwvSl7L4ipD+F4jjOI7jOM5iw28SFjj80yfL9u3bw5dXRg5f1eliMg7zMRx9ypabBD5Nyrf4+QKR3yA4juM4jrOY8ZsEZ3i0REe/uC+2sOM4juM4zhLFbxIcx3Ecx3Ecx+nDX1x2HMdxHMdxHKcPv0lwHMdxHMdxHKcPv0lwHMdxHMdxHKcPv0kYgr/85S/FnXfeWaxataqMWXxQxwceeCDU8Y98ySiDhWyXYerr1MMXoV588cXiwgsvDP/wb76zFPp1TKrOf/3rX0N7nXHGGcf0BT63zFaF2rwpXRegO/+rhC+8oT/9tw1W93H4K3bmnzJi57bloTs2WAj9bC55/fXXg8+M2jed4dC4Q5/mukEfbwPtzfg2jvYe59g3TlrdJGAIGjPeGKzoiG0beL7yww8/FO+//37x7bffljGLj+OPPz7sB6njQrbLMPV1mlm2bFnxwQcflKH5zVLo1yn4rG+qzvzflWG46KKLwv9tGSVMsPlfJffff39x+PDhYmJionj00UdbX3Pw11HrbjnllFOGtrMzOAtpPFpqcJP/4YcfFp9//nkxOTkZxiQ+N94G2nv//v1laPSMY+wbN61uEt58882+AY4PJbE99dRToWEYxBfjjcKll15aXHXVVWVoccI/ZVu+fHkZymMh22WY+jr1nHDCCcXVV19dhuY/S6Ffx5x33nnFBRdcUIZmoC9ccsklZagfxny2KmjzcfxDx71794ZJBPpT5iOPPBKuPYSHZdz+ip2YxHQBunOzN5b/kbOAoY/zS7Uz/+AmX2MR7cTNAr/Mt2Gc7T2usW/ctF5ulDIKTxHuu+++Tu4E5ys+oUzjdnEWMu6/juM4jjPDyN5J0C9Re/bsCXuw683iNaQ8PtaacNZ2sZSJY62JrctbBevRWNemZVDcvCAb2LMeVOulSSv5kk3ZikMf5bVIV9KQNl7Dy3nVizSUR1kWK4N0HNeti89JT51smTlPdJAhe1GXl/SfiA2UzRo/0rBZm1qsjlV2yZEj7NpC6iI9FbYgp8nm0La+TT6bwvokaWknS5s+EutqN+IBW1EHxaOLtZ9dk80x8klfRZ19ciG91mZTl1RftCgt59lbG0oW9SI+JYsyFEddU/oSxzmVYduUY+uLnGeTHFsm+2F+DatrJ8qJ20nloVdcny70AeSo3hbKk19SRpW/YDfr+yldm0AG+e+9994Q5phNIK/JH6lHXR8U2Fs+ENe5rn3qoA8rH2U//PDD5Zl+0En2bJJN/aw/KG6QPmXLsxt5IPY30tp2rtMXXWRH0nBs+xPU9ekqhm2DFJSn8tExZaMUVfWW/YkjTcr+2EBx2ER+igz1J+JUR9IiR5C/zThEGZxT+egrBrWt2leb2pe94kiTQnmBfs2xbf8qG4tY16pxhTiNDdiDvih0TuWk7JWCfGor8tk+YUFH1ZO0uf41L+CfqbUFMbGo3bt3h7h169b1hScnJ0N4+/btIbxv374Qnpqamt64cWOI4xzxa9asCfumvCkOHjw4KwvIS3jz5s0hzPldu3aFOHSUbMVNTEyEY1BehUE6IE86rly5MmzIFtQBWYcPHw4bx+QjvaDeVi/ySJ8UTekpQ2XqPHoRrgL72zoijzzESTb5kRWnURtDjl1y5FhIrzTko26EVdbq1avLlDMoDfnYUjbvor51PptCtpB8bGT1Ym/LV/0kr6k8jtlUb45JSz6BrZDBedqDMOmAOGSRhzTUGx3r2oW8Te0ofatAD9WVtuIYWaqr1R99KFO+RNnKB8QrDj1kS5vO6kucwiA96vyXfLIb6ckvnUivY+wj35MeudS1k8pRHWN7yRaQo4/qbJFtlI68HKNH3L6UmyrDpsOW1vfZEyYfeQYlpTNykGfbN/ZHtaf0iPsgEKZOilOfsGnq2qcK0pIO+ygfeZBNfQTn4zToTDgFaaSj5BAnGyGLY+osH4n7FPIVp/aTHSm3blxo0pc8pAedl/2Bc8RxDpAvvesYpg0AvWOfoDzpJLtR5zrq6k1Y9aAsybZ1k305R5wNk4c4bIMe8lviZCfSqc7oTH7ZkfQ6Rh/KI6/VgzI4p/PyHRjUtqSTb8V2I6yy6iCv1QHqbAz4LGHZTn5KHkHZ5CON5JDHpuGYOspeqkuTzqRL2ZkyBToiO/aBuK7zlU5vEmRQjCGHlsNgGOIEaWNDcUwcBrfk5I2hYUhjB0Ma0zYeeqbkVMXZvNLVInlyPg0+1tE4xmFsfZBrL0DUXw6Voi69HNKijqOOlII8ttMAAxT5JJv8VWlk5xy75MhJQb3jgUrlyR65Nu+6vrHPpqB8227IIK/ahf2wfUQ2tvIVZ/MjX+WB6mMhHNc7RW47xjqkkK72AqM4tQd1jtOABnSVmao3VMUN2q+BPHE/A+xr20ZtiI6DkNtOxFvQi3jpkKNPXZ1le4F8ay/1t1QZNh22inWlfqSz9cwlpXOOP2KPuj4IhGNdibO+k9M+MegW+4zGZslGn6o0TXaKdVQb1vUpIBzbjTjbfpBKl6MvcqzN8RWVzzFpm/p0imHaAGIfRgayRGrcjcmpt2wdy6mKszpxnjh0EZLXxTiE/LgtbRsNY1vKIF8sl3DcvimQb+2SY2PqE5eHDnZ8w0bxvCH2AdLbPCrH9pOY3LEPuda2gD7W5+YznS430uOUtWvXFr3GLXqGnn0R7I477ggvVvF4hsdaF198cYhPEb/nMEhewQtsvfqFvR6VjvqrBrwkQ731GOu5554LYV5oERz3nCa8r6FHctdff3141MVjNepI/ZFVRV163qzvOW1oB23XXHNNOFf1uJB48lx22WVlzAzx+uyXX3652LlzZ59sXjaCTz/9NOxTxHYZVg5YW0KvM4b9oUOHwj7H5qOob9MLS5RL+SeffHIZc9RH8W9o00f0dSbZwXLqqaeWRzNfsqEc9MGHVJ+Y0047rTyqpk07VpF6kfPdd98Ne15WhbPOOivsxS233BL2o/qqROy/gkfSFrUxaWWPE088MZwbdOzJbafYZxkb4KuvvupUnypeeeWVIN/6Y9xH0YP+du6555YxM6xfvz7s8aMuaPJH2aOuD4rUuylHjhwpj/Lbx8J1KH4xPvb3YcbvJur6FPQmK8f4NqTGtHhcyNG37nrVpk8P0wYpkJE77opRtFMK25ewWaqthhmHWA6OP2I3ybNLZYaxLbryLip9UDKxKV+MG+aDADk2Zjl77JPoHi8VisckQDdBejb0ZinQzTffXJ6pJmfsA3TctGlTXz1oB9oo1e/mG53eJOAMDLhsKcegA5555plhIjPoZ6mGyYuD04FozC1btsxOKEdJ3GFx2Jj4AkRnfPXVV4sDBw6EOtr1eCma0lNPtYPd+OpUCj79CPbiWUXvTj8pu2otnojtMqycmNTXTJpsPo76DsuwfQQ7TExMFE8//fTswPPCCy+Ei8qVV14ZwsA5bpjvvvvucJNE/dowbvuA2k909YWYOmL/rSNlD77UMQjDttM555xTHh2lC32q+O6777JtYyfZkLqgtmWU/vgf//Ef5dFw7cOkIOfme9Dxuy3IZULG9RI0wbrxxhvDvokmfXOub8P06S7HsmHG3XG3E/CJzVxSuqnfc8OhGwYmutwI2EnzsLa99dZbwzXn8ccfD+Fnn322uO2228LxMIzSxvaHEurOzcGaNWvCj2rPP/98eaaaQca+ycnJZD1SN+LzjZG9uBzDwMA3rd95553wubpBjDNMXgY8nmjwYhiDnn65GDU424oVK8rQzIXBdj6Lfv0F9OPTgjjnY4891vhiS116BvxUmfalpxSffPJJeVRN1cu9usBUEdtlWDkxqXrm2nyU9a0iVaYuym36CDz00ENhkOPXSn6tYKBHliZj6M155HIT38XEqWv75PDll1+WR/2kfv3tCupk/beOVD9r6nuWNu30/fffl0dHaatPE++99155VE/qKRfk2jWHHH+s64M5tGkfvgPfxLDj97CgPz8wcK1k3OAHNVYB5F4zc/Rtur4N2qfbtEHMsOPuuNsJUuVV0dTvqSeT7ampqWBDbgqgjW3jpwn8aKUnhsOQY+NUnxqkP8NNN90Ubg4/++yzcFOb+8NT7tj3xhtvlEdHGaWfdMnYbhL4FYG74NQvv00Mk1ePU9sMHoNCp+Du9LrrrgthPfrnbtrCL2rcvas+9pcVnr7Qyeoe79Wl584bHnzwwbAXdQ550kknhX3TY3/qQ/3iDvjEE08UZ599dhk6lpRdhpGT4u233w57DUQ5Nh91fVOQnl9YuBjZQY/HpvqFtU0fAQa6u+66K/xaxK8UXJStLJZccAOV+wthE13aJwf59pNPPhn2QhNj+8SkS2L/rYKJEG28devWvjYm/8cff1yGmmnTTq+99lrwc3TpSp86mEiga91NofRg4mD10HGTXVPETyWgyR9z+mAOw7YP7cJExJYdM8z43RauJzzhYLxg3GD8yF0ekqNvzvVq0D7d5Vg2zLg7F+2kcegXv/hFGZMmp9/z5ETnqPeOHTuCbPpxW9vqaQI/VrHlPDFM9YkcG5OG5Tx2/EHWRx99VIby4GZkw4YNAz3dzBn7gKXOjH3xMjTG6gVBb1BoxcHyxSM2jqvg5Y2e44SXUXi5gxdPyMNLJ9vLl1VIQ5x9YQZy8sYojV4YYd8bpMMLI5xDV714Yl9SowziKFPoZRTycgyUSxyyiEMe5+1LNMQTh+56AYY9YfsiT8/RgzzSs1E2cVU0pZcdqS/p0KlOHujFJNJKLnlUR+pHHDKJkw7aC45z7NIkJ4XVB5CNHNt+yM6xeVf1la2lUx2yjdoFHZBHOYCsJj+vK0+ykcmmfLKDfFttQTzpiMM2bEqDHOlVRY59Uv0phepq86IPcbZ90Z041V/+ZdOMo1+r3si1qB60I+WzWVtSJ85hpypy2glUjvVzpRFN+oB8ytZF+WRnUL1tfuyDbKuH2g27KU5tQp3Iy8YxaUSObUB6xDrb+Cp/VPuSjmPsQRrVR7a3OnCOOOma2z4x1i7YDShfslQXtYd05JzVJ4V0sv6tNrT1lw6UK5Atu7Mhgzy6doLk27YXTfpyTDz52Ehvz5Oe/PK1VJ+OGbYNKB89bT3Qh/ojkzjZDdnWdjFN9e5iHEImcWzksf2FOMomHXItqgP1onw2W2fkI09+SJi0nB/WthbpH+tVhfS1doEmG6Mb51VP0mAjlSsbqW6CNORTHOdlf2xCOZxHL/llTO7YJ3uyIRcd0Unn5zutbhLkOHazDWjBUHJoGpPGwJDEcS6WhSFFU94UpJFM9jQoeWlQOq+cWBtp4jg2OaHdJF8djzj2KWcinRyOzTqP4LzksNExyFdFU3rpRl05T/o6eYL62zzIQF/spfzYUR2XtLadQGU32aVJTgraCHlq16p86NBkc2hbX+mhLacOtsy43dr0EaAOpLdptKn+yCWMTOI0qBFf5et11NknVx55bJpUXyROWBvG/pUji61Ktxz/jfPJtoL0yk/5doySvWX/KuraSUi+1TV1Aa/ThzDx2rBVle1tHJuwvikdaB/8Ma679OA8dbH+n2ObVLtJP8gZV4iT/9g+mJKdioOc9klhbYDeaht0QneQD0pH7GjtFBPriNxUG1a1K+MdOqg8u5GnygaiSV/CqjNbPO6BbRPSxn0uxTBtIB20kQ8flX7kRTc77lZRV+8c+7NV2VZpkan42K6K14YsS12/55y9VnBszw9jWwuykJkDukkPbapLnY2F7VNxPaxMtpS9iaMPUAYbtqEvcoxucXkWypL+6IAu5ENPqwdlyN5Kt1A4jj89xR1n3qM1kzwWd/rhESvLKlhTayFeS6/uueeesHfmHpZg9C4uQy8tA9aP9yYTi65du7CNkw/vB/zqV786ZqkFyzpYBuTj7fihD/CPxRbq9IzlTLxPMs7l3s5oGNs7CY7jjA7eR0i95MeF/0c/+lHfZ1CduYUbty+++MInwQncNuOFyShfbUqtxeZToLkv8TqO5ZlnnvEbhEWC3yQ4CwImD3xJgD2b0w824ash/IKjF6nY8xLnv//7v/uAPU/g5TW+Dc+XqNqgNmZCvVjoyjZOPrywzUubPE3ApxhHaAeeIvDCqLfF3MDL1MDLxgsB/IYn/Vxn2Np89tSZX/hyI2few8WLz9laJicnw1ccnBkYpFluxJceDh48GOJYssGXMPwGYXGhpQgWH8adYeGHBX755es2sGbNmvClF75SM8jXXpxuYBmhZSEsKeT6w5Mn/kfRtm3bwmdEncWB3yQ4juM4juM4jtOHLzdyHMdxHMdxHKcPv0lwHMdxHMdxHKcPv0lwHMdxHMdxHKcPv0lwHMdxHMdxHKePBXWTwFc9Vq1aFd6k7wK+msOXBPQ5QcdxHMdxHMdx/EnCSOEb9Y7jOI7jOI6z0PBPoI6QM844o/j888/LkOM4juM4juMsDPxJwoi48847Z/+pleM4juM4juMsJFrdJPAvw/l37rwnAHpngC1easM5flnnHQDOky+GfwV/4YUXzqYhj+BfxduygHcJmIwTx3sKHJOXckhPHHkkz+qE7vynSdLG7ySgh3Rlb/NxzL8fRzfK4Jh07PWuBGXu3LkzHHOOTVAu/wFX8Rwjx3Ecx3Ecx3HmC61uEn744Yfwa/m3334bJsannnpq8eqrr4YJORN2wcT63nvvLZ577rmC1U333Xdf8eijj4bJuCDNzTffXOzYsSOkmZiYCHk0QbdlWd5///0Qt3fv3uKhhx4qDh8+HOJvuOGG4oknngj/Wp64q666qk8n5B05cuSYX/spb+vWrcX+/ftn823atCncSHATsGzZsuKtt94qPvzww3CTsWXLlvBv04lDB3jkkUdCHFAXrejiBoF/eX/55ZeHOMpmI+w3Co7jOI7jOM68oTdZbUVvMswMeLo3oS5jjsaJXbt2Ta9cubIMTYe0nCed4Pzu3bvL0PT01NRUSENeEcuFdevWHROXSqe4ycnJMmY6HMdx6NGbuJeho7pu3LixjAkz/unNmzeXoRmIs/VJ6dC78Znu3SSUoRlUTyvfcRzHcRzHceaSzt5JOOGEE8qjo2gZzx133FF888034Zd4fn2/+OKLQ7wgHU8DTj755DKmKM477zxm2CHvuJAeq1evnl0OdOKJJ4ZzH3zwQdiL5cuXl0dHOXDgQHmUhiVILKeyUE+eLuzZs6eMcRzHcRzHcZy5ZWwvLnNzcOaZZxaHDh0KS3nmM9ycxFtXXyniZikmdYPlOI7jOI7jOHPFWG4SeMn3/vvvL955552wXv/0008vz/TzySeflEdH0TsJ48S+KyFSccMQvwMhVq5cWR45juM4juM4ztwylpsEluFcdNFFYWlNirPPPjtMkrmR0BeCgJd5ebl4XFx66aVBD15ctnrwwvHHH39choZn48aNYdlS/DUlyuIrR47jOI7jOI4zH2h9k8BXfsBOfDWx//7778N+xYoVxXvvvTf7WVKWHsEXX3wRnjKw3IYvHvE+AO8rEMfXkvi60fr160NaUFn6EhCyNJm3k/o4HUinv/3tb2EPenJhn2Bs27YtTORZGoUObHzhiK8kgWTa9w9SOuidBexCHm40uAniJuTuu+8OYcAWPF34zW9+E8LA51T1WVfHcRzHcRzHGTvTLdCXhbTxRZ9UHF/wWb16dQjzVSC+GMRXfojjnCAtXxciHV/7sV9MiuXqy0RNcVU6scVxgi8qSV/ySsfcMkF1pD7xV5usPtTTfk0JiKN8W3/HcRzHcRzHGRfH8ac3WXUcx3Ecx3EcxwmM7etGjuM4juM4juMsDPwmwXEcx3Ecx3GcPvwmwXEcx3Ecx3GcPvwmwXEcx3Ecx3GcPvwmwXEcx3Ecx3GcPvwmwXEcx3Ecx3GcPvwmwXEcx3Ecx3GcPvwmwXEcx3Ecx3GcPhbtTcJf//rX4re//W1xxhlnFH/84x/LWKcrXn/99eLnP/958ZOf/KSMKYq//OUvxZ133lmsWrWqjBkO2u4Pf/hDaDva0OkHOz/wwAPBzrm+3VXbDEvKX5y55+uvvy5efPHF4sILL8zqa7RfVRvKv/C1cZA7xi+2awF96bjjjgv7LvFxd/6Bv9LWVX5Lm3GevjdfaNK5DYxXjDGj8M+5vkbOV1rdJHCxwBniDSMzIRjXxaKOgwcPlkejI2UDbQy42IIL8WJi2bJlxQcffFCGjvLNN98U3377bRkanlNOOWUsbbcQOf7448N+EDv/8MMPxfvvv99J2wxDlb84acY1Xhw5ciRsXbTN/v37i3feeac477zzypjxkDtO+HjSjI+7C4u33367mJiYKJ566qkyxmlDV/OXxUSrm4Q333yzb0CZnp4OGw7LBePyyy+fsxuF008/vbjkkkvK0Gihzrt37w7H69atm7XD4cOHiyeffLL47rvvik2bNoVf67gTXgxceuml4QbIwuTgggsuKEPDQ9sxqXTSYJ/ly5eXoTxor6uuuqoMjZ+UvzjVbNmypTwaLfjS+vXry1AzjPlsMfyq/fDDD4/1BiF3jB/ntWAcXH311eH6wr5LfNydfzBu0tbsUzC/euihh8rQ/KBJ5zaccMIJYSJ/zz33lDHd0dX8ZbHRerkRA0sMv5zfd9994Y5s27ZtZezi5sorryyPjoJDM5BzUeVun1/rbrrppvKs44yXQW8snLmBR97j/DWXcaotjHOM+47jjA9+kO2i/zpOFSN7J0G/3OzZsyfsQetCWYbDkiTWVQvW1mmdNb+2s5SJY61rq8s7KMjkV33J4qIc/8KPfC0ZQhfWatbR1FG521+9enXx1ltv9a3Vo1zKV1lcaK0u/FKgerNHb8swNuVXP609RRfV1dZR51VumzWAlCd7s8V1BHQlXvXgV8kUTXqxTIN6Es8xsuzkhXjiyI9O9kmXbCQdOB50XWWOjDodqrA+S71feuml8sxRKLvOl4TVEVmxfrlyLDltHEP7kA5dsIF0Yk9efMLqGbcVOsqOnE8t0cHWnFOaeB23LRdZtv9gF8qQPrLJoLpYOeTjPFvKPpS/c+fOcIwsNsgtg/MpXYlTPydNylZAvMogvdUR26keFlsem217OwaBfL9OB0td+3QBdcJGyI9tyjFlo7PVg721C1g58fY//sf/mD22tkvFyZZqg1gnztux21JXlypyx91BxizOqc3RV/LRyfY/a1+OSU9aQf00pnAOu8R2l71IE2/EV10DZTs7PhBv/Ut5ZeuU79IWhMkf+yZ1bRoTsZXsw2brSPlVbd1kG2vbJt+1oDOySEc+laGwqGq7lM62DSBlR4ttE/byGfS25abiOFbe2CaxrZv8OAVlKD+b9AAbv6iY7gDExKJ2794d4tatW9cXnpycDOHt27eH8L59+0J4ampqeuPGjSGOc8SvWbMm7JvyVkF6mw/Is3Llytk49oQp6/DhwyFu165dQW/CbBMTE6HMJihL9U2xefPmkAZ5gGzKpTyQLlYGYdVT58WwNqU8pUUX4ilTdURP0h08eDCESW/1FuSJ6yu5AhkqH9CVMGUI7NC7gQryOSYP5dt80KQXeakLcdSb8+SRjqSLy8CehIE80kvnZdtcmmQ06ZCCdqROsZ8QJ9nkR1acxraP2gb9sBP+Qxo22TRHTgx5kVvXxmD9hXKUjrZHF1BdSYc82Yk02FZgQ+I4Rxr5OceCNNRFaZBJGtWVspAhG8qfbD04jwxkYTPrX6JJFysH2ZQjvVKonSw5ZSCTOOQTz0YeNtrC5qVNLeSTzZEl+WpD8qkeakMgnnKr/MWOQciinSUn1iGmqX2Ac8QpTRWpdOiidqAe2FhpCNu25hzxahvVF5ROPsxe+QTyUraL45raGZtIh9y6VKHyScsxeeVD1sacj9PQdtIphjKpE3LisYY46Wjtiz1JK1twjvTSnz1hyrblElYcm/THTmD9jzohlzTSiXiVIbtyDsgrO7JHb5A89I3zqlzSEpYdSac8grTUSb4ke1AWcF5yVQ402Sa2LfJII1nWdy3ks7LifPiK0ln5tu1SOhNnbYbdOYc8yrJQJmXLR+RHhNlUruxKnNqRtMQjW+XJlkB5xCOXfIQpyyLd61Aa25aAXOqD7MVEpzcJGAnkaMTRqIAjWYcgLefV2CDjx0bOyZsCPUgnZwUcI25c5JNOnQe51rkAR2wCGRrkUqh+SkN5cTnoRhoNNhxbe1g92thUtonrRTri1W5CnU56AfWI66vyBOnjfHRMmw8baAASqcEgVy/CsV05X1WG2h2drD0o0/pODnUycnRIQZ4qP5HsHF+K2wbkB8qbIyeG+Ph83MZAOI4jX046wlZ32p1NyI7W1oSt31M3qyf5Y/9Hb9unKDe+kMT6NekCpI/bvopUO+WWEedLyVKczUtYfU1InrVhXPdB/E7XB0jpFZPTPvJfW5cUqXTIsXXT+GntTJj6WIiztkq1baotYttBHJfTzsPWJYZ2qxqPVD/acJgxK9Xm0tv6SxwWlBnbXf1X5Uqe9RHF2faRLtY+gJzc66e1tcpIxSmvxh/1AYjHRNomrjv62DZLlZVjGyDc5Lsp0DEe82QHa2vCqbZL6az8dWOAbFY3ZgPhuA7ExXWlHlYetrX2IT3nLbFOVSA77hfYJtZhMdDpciMe+fCoZe3atWFpTW8wmX256o477ggvnPD4h8dRF198cYhPEb/nMEjeOnj81XOY4txzzy1jZtCLey+//HLYs1SKx1Z6XAn2MWhXUB5LC+xjqkcffTSc+/TTT8O+N2CEF071WM7q0cam4uSTTy6PZti7d2/Yn3XWWWEvbrnllrBnudQg8DJQz8/CXo8F4y+pEB+/VBu/QDeoXqeddlp5NAPnaXtr62uuuSac0yPH66+/PrQ5jxCxKTYb9OWrOhk5OsQQT57LLrusjJkhfr8gx5dSoBt9VX4+jJycNu4aymHTo+ybb765PDOD/MH6Pf1FegJLIfmggK0revMulewBqaWE1t+adBE8Bh+W3DK65Be/+EXYf/XVV2GfYhB/SdkxXkZhyW2fYaBc5OD7kn3iiSeGc7Hvpt7lOXDgQHlUFCtWrEi+Q4LsQRmmnQepi4VymsbdYcYsi21zxpreRO2YtovH6tzrtL7ydujQobC3nHrqqeXRUUY1r0iRMybi33Hd0Yf0VeTaRjT5bhVxX+1NisM+tnWsfxN1Y0DOmF1HXFeuxaDxC9sij/K4RmucGgY+LEE72LZ67rnniltvvbUMLR46vUngE4s0KBvH8dcX6IhnnnlmcDS+fjQIbfLG8Mk/S+y4DGbq0Ay88dq2YVG5P/7xj8Meeneuszazm24GcELWieKUdn2e6NIuFj6ZaWnz1Qs6Jbq/8soroR4acAQXuNzBpo1elJuytT4fxwDy6quvhkEUm9r1hrk0yWjSIUb1jW/mUjT5UhXx5HUYOU1t3DX0RyZRa9asCROC559/vjwzGJOTk8m6xhOKOrrSpY5xlBGT43MwrN/l0EX71JGS/fnnn5dn87j//vvD5Fd9ncnze++9V9x+++0hPAht2nnQuuSOu4OOWXVcdNFF5VEzTddpJo4TExPF008/PXvj8cILL4S2SH1IJMWorp8wyjGxyTZdkzNJn2+cc8455dEM+Ag3a3fffXf40Y1xa1iYI9KetCvQ1vxY0NW4NJ8Y2YvLMQygDKZ8R/uRRx4ZyJht8qaI74YFjSwog0Fwamoq3PDgXG1g8NdL3D/96U/DHqpeQMXpBBdbBnsuOvyKoxuFru1i+fLLL8ujfgb9Qg714MkSNzrc8OhX9ZgPP/ywPKqnjV78UoFtY+yNF/rxNSouzo899li4YA9KnYwcHVJ88skn5VE1Ob6UgjTW9weVk9vGXcJXwriof/bZZ+HGrOpmMfVrp/3154033iiPjtLUFjG5urRhHGXEfP/992GvX2yrGNbvcuiifepIyRpUPhMovuLHGMYv7Xz6m6/7DfOZxjbtPExdcsbdYcesFCk5VeRcp/kgCDdUPBHB9kwEuR7mTJpHef1sc92z41MVObbpkkHarS1NY3YuGr8A/fET2pj5XBc/YHCDoKcJ3JxqVcNiY2w3Cfyyyq8Iw9yRtslroaPyKwOPx63T6/i6664Le35dUBxl7tixIzxZqLvoNXWiBx98MDgUy4c0YPA4DLlxB3jiiSeKs88+Oxzr1yngosPdK/97Abqyi0W/dqgMoQ6X+wuNePfdd8O+rlPytIYLY50N2+ql/LSDxV7orK15CsaFftBHknUycnSIOemkk8I+fowck+NLKbiokk++P4ycnDbuGiYuGzZsqJwM6Otq9957b9gL+rbqQV9kLIgvSq+99lp5lEeTLl0wjjJisAN9s258GdbvcuiqfVLoWrB169a+cYf+8PHHH5ehPLgu0D+xAb+ws6yh6gYhHuPi8DDtPGxdBhl3BxmzqtBYo2VsVeRep4Gbqrvuuiv8iIbt+XEm93o4iuunyBkTsS0/HNp5BXX86KOPytCxDGKbLuGftsEg/1NlUHLG7EHQ+IXNWPrIk7Mbb7yxPNse5NKG3CzQj+KVM4uGXsdqRW/iG170YOO4Cl7G6Tl3eAGFl1f0QgovvmwvX0IhDXH25RLIyZtC6aw8Xi5RXmSxcdy7yyxTzLy8QpmqD2HKty/dxEhuz2nKmBl4yYs4ziHTyuC458Sz+ShHe0G5elkIfUiv821sqrScjyG/zUO52Me+lCPd2WydVJ5eNFI5qgN78iCPc8jWi3DEyeZ6qQhdJCtHL9KSJtYLpJtsiDzbXrI9+dhIr/OyPZt0TFEnA5p0SGFtIbnkkS3QhzhkEicdtBccKw/pZT/kihw5MTltLLlsHAPx5COdSKUD0pBWtsfviSMNcdY32EA2kv6ksXWVr7ARTxrK1Qt30iXu+9JFcU26SA5x8uU6yENa9CA9MnPKiPWCuD+C/EntBYTJr3TI1NgiVA/bNoojf5W/SAf7IqN0oO9XQdmkYUu1D8hW7OtIpVMc9UQfNls3lU99BOeIw1YCvZROG3HIlyywbUa9KQ85lE+dSNvUzkBa4lJ2qKpLitxxd5gxSzYhLTqwIcfaTfZN6Ylvxvk5tvlB+WV30lC2tY30l/0E8fJx5MuGkgEcE2f9VOmsPNmS9KA0dWOi2lFtRpmcl90hVVaObXJ9NwV5bJnoiu7oKOraLqVz7higstnL12RTULnIsxCnfgSyrWQrn2RxXmWRRumkp22DOlSOretio9VNgoxsN+JSYHQcijQ4B46FsxLHuViWOik05U1BfivP6oVDSJ46qHV0Ghz5ystxndMoXWqjHBzTdg4LHVCOiS623kDZxOt83FHr7FJl0zrbCNKoXOTFncDmZ7OdThsy0Enx7KkvuiLbTlJsm5CO8ggjQxcwqNNLHdZuFnRR2ZyjXWy7E5YObLSLzqMD+aRTFXUyoEmHKmy9yYMM2hobWh3rfEllS7/YfqJJTgxym9qYc3b7/e9/f0xcqv2q4pCLfDbqoPahfNmDPbYiD+fQKQZZ6uvYQxcLsGWyDatLKk8d5FG/l/2GKSOOox3VTjYOqLfanI1jyrDYfGyCdFX+kiqvSocUde1DPisHuSnq0mFL9QfiNc5XtXUcBxqHJcdutizspLoQT7uxx0flEzl+LT2UR1TVpY6ccZdyBx2zZHP1vzhflS0tVjfKRoe4XGTKpvFGGdTJxllfG+b6GccRTvkXspSWPbaMx0SwdaRs22axXKt7nW1Sts2xt0BfZEt/5Nuy62SldJacpjigDvIZ1UvE5SJDKCybsLdjBSBL55DFecIqo0qnJtAz9svFxHH86RnEcZwMeDTM+wGsF3Ycx2GZES95s/zAwjKpG264YeAXoZvQevfeROeYMucLLLtk2cgopxcssWFZG+8TWIh/9tlnw/Ew74UsdfT+JUu3Fgq8j9Kb1I+9venjLIca5iX+hcLY3klwnMUALyiNcl2m4zgLBybsfKY1NVlnrfuaNWvKUPe0fedjocP7CKkPVvA+x49+9KPkZ1Adp0u4QVjsPxj6TYLjZMBLdwwIv/nNb8b68qjjOPMXfTiBF1R5mZdxgo2bBz6dzddzuoAvpPE5TX655EnmxMTEvB6HeCkYsMWo4IkBX49jXNbLv+x5svPv//7vY/2QwmIBm/L5XvZsCwG1/RdffBH2o4Z+zdMW+iQfKRjFi+/zCpYbOY7jOI4zOKxttu9zsOaZddVa098FrGOXfLu2fz4iPbXlru0eFGzAenKtQ2djXbld8+/kk3rXgLj5DL4V6zxq1NfteyCLGX8nwXEcx3Ecx3GcPny5keM4juM4juM4ffhNguM4juM4juM4ffhNguM4juM4juM4ffhNguM4juM4juM4fSzKmwQ+u8Y/c+GTcfo8lrNw0OdGaT/aMYe5bnM+Tcin0VatWlXGOMNC+/HPceay7/I5Sz6hqH8sJPAx2nihfB4wB+pCnXL7mnMUbMcnNy+88EK3XwaMz9gqp/+4XzrO3LOonyQcPHiwPBodDGBMaJq2eLLRBn2HezFzyimnDNR+P/zwQ/hO8jjavAq+mfztt9+WIWchs2zZsuKDDz4oQ3MHE9CuGYXMpcx88ZVc5qr9+SFl5cqV4T/5pv7Hg/ul48w/FuVNwumnn15ccsklZWj07Nq1K/z7eTb+VT7wL8Jt3IoVK0J8Fzz++OPl0eKE9uPCOwj8Q5Of/exnZWj8UP4FF1xQhpw28N9r6Tep/2I7LiibXz1j+Lf/3AyO4x9ZMWk6dOhQGeoGfmB47rnnytAM1IU6UTdnMLDd1VdfXYbmP6PwqVzeeuut4plnnkn2HfdLx5mf+DsJHdD0b7mZcFx33XVlqB0M8jt37ixDjmXQGwvHma9o+VqXsHxj48aNZchZaozCpwaByX7qv9O6XzrO/KXVTQKDDv+aWmt0WcPL0hp+gWNNr4VlOcRznvTkE/yKYOWwNIdjLampyzsoyGRNpGQxaFKmBfmcZ0MX1sdXkfsrh/0X8dgNuVX14UaAeM6jqwZ2bLpp06ZwvHbt2nBeNqIOpJPelKd6Ndl3kPpCU3r0VHuxz3mMjI7yH3R7+OGHyzP94AvWNtgyhXQkbao+uXIE56Vfbh7ZHRtga5XJJpugm/QgrQU7ylfZbJuKWK+UP1fVlXSUL/1suw2iSyxHtk/ZHUhv/Z9j+SI2s7Kq4Bx1JS/1IT2bdCLOljGMbWOQiRzkCfSQjHijfEAuuqoN0LOuT2CDyy+/PCxdu/fee0Me2lDU+W6dbTlmWQy/6Eo/0qMLxyqDuFy/AHs+3qhLjOSjO2Wm5FOu4qSnoL51fdHWx/qBlaO8bELpbBwM4ytV2HFOsqzuVVAX2SP2Z8liE3FdmnxK7U08e3sOsCm6IjdlU+Qrjvy2Tpyv83/y5filQLa1YWrMa6qP4ziZTLeAf9nNv0FHDP+imn9Pz79EX7lyZYjTv6XXv5TXv/jWv9ImPUxNTc3+q2vOEb9mzZpZeXV5qyC9zQfkQTfFsSdMWfr32rt27Qp1IszGv8CnzFxUblUe6sq/kZcOlGfTcx6dZDvpIyRf+QE9qQNpQfVSvjr7DlrfpvS0F7LRX+djfWNIh01IyzF5kRHbkfNxGupJGGQb6ooeqidx1l+a5KRAP+QqD2HyWdCVsgR2pxzi2JMP1Bb0GdlFeckDpCWs+qtu5BHyFbU7dVRZoq6uhFUuaTimHOmXq0ssBz3wEaWPQb7Ni06yA2VKluJScE5tQHpswDHykFHXx5rqI6iD+hCQTrYRxFnfAmxg/Ykw+lAucZKh81VYHQWy2FLtCXW2hbhOpJHfWPtwTBxlcWzrLr8A5aW/gcZr0laBfLUJukg/xVGmfJpzxCkMdX2ROOlEGmQhQ/WxclQfSxyHfMKyjfSJfcWmqQJZtr8SVvtZm8bkXANz6gIpPamL+g7YdgBsqnpja7U1OhNHGyLTtgdlC+Q0+X+OXwJlWhsqjXSFpvo4jpNP/wgyBBqwbIfXgKJOSSelYwvSxp1fctSxRU7eFNJBAyswUMWDuwYQDTrIjQcTDYo5qNwq/RggY3m6UAD50dNi06fqhe6xztSTdLr4VNl30Po2pacetgy1l71oxCAvrnN8gaAeVWnUdinbUD46KW+OnBTIsOdlX4tsbFGc1Smlp+JsfQmr/QA/sRdSbBq3BXrK1oPYjHgR65eji/Lk9BXy2XT4i8qCuPwqkBPXD5r6WE59gHAcl2pji+xrdUcf6/+pNClII3+AnPZssm2qThCXpTao8wtAVqwTcaSrQ7JsmVAVZ3XO6YuE47E+ls1xnC+Oy/WVWHYK+ip5LZJv/SOGusp3oe76aUnFxfnwD+JsOwP6EG/rTTiuN+FUnC03x/9TcoB0Vl/k1I15g9THcZxmOnsnwb6MxBr8XsedfdTMmn1eQOKRII8BL7744hCfgpdWLYPkrYPH170BpDj33HPLmBnWr18f9i+//HLY88Izjzl5hCn9ebTZFXv27AlLhvSolI1HrTwGpryzzz47pOMxq5YJNJWP7rynYGU++uij4dynn34a9iK276D1rUuPvtSjN2mY1ePEE08M5+q+/oG8q666qgzNEL9fwKNo2s/W8Zprrgnn6h7X45foR14YVg4+iC9SR+ou+44K1u72+mfY67F7bEN86bTTTitDM6An6WGQuqbe53j33XfDPkcXcfLJJ5dH1Vx//fXBhiwBoF/jk8O+pMxSgpimPjZIfQYB2TfffHP4aIGtD2WwcZ5lIqQZhpz27NK2UOcXwAcZ1LcsjAGjIrcvLl++vDw6yoEDB8qjPLr0FcZoli1ZkNu7cQg+W0VX18AUe/fuDfuzzjor7MUtt9wS9vhcW7ryf2ga88ZRH8dZSozsxeWLLrqoPJqBwe3MM88MX1bYv39/GZtHm7wxR44cKY9miL+0wAVVFwEudFyEGJy7ZHJyMlx44o0LOvr8+c9/Lq644ori2muvDRelusmrYGKSktl0gzFofXPSp/T4/PPPy7PHwuQtHvhTrFu3Lin7qaeeKlOkiWUPI4cLHG1x9913F5dddlmw96hhEsQk+JVXXim2bNkS9B6UYW0W04UugknPq6++GiZs9OtRrBeu62PQZX3Exo0bQ5+I31OifzA5YjJ46qmnFs8//3x5ZnCa2nMctrXcf//94QchlcNY9d577xW33357CI+CcffFLn2FCW1MfA1K0eU1MAWfkLZ0+RGILv0/l1HWx3GWEiO7SbATRy4gXEzeeeed4pFHHjnm1+w62uRNUfX5N/uJUsrgojs1NVW8//774YLUJW+88UZ5dBRejhNcNJhofPbZZ0EvXjjjwljHSy+9VB4dhTbgAtfEoPVtSm/rIlJxlg8//LA8qoZfgeIbEmiSzY0hExkxqBzScoGj3tS36carC2g3Xk7nBW5+Jav6NThlN/2qBsPazJKryyAgg++lM2F47LHH+l7E7IK6PjaK+qA/v6infhG+6aabwsSO/swkvs2EJac9R21bC7+Eb9u2LfghTzYYq+67776RfbZy3H2xa19JPXUBOz7FdH0NTPHll1+WR/2knsYMSpf+D01jHoyyPo6zlBjJTQITWn5t/sUvfhHC/KrFkwUuKIPSJq+FwZ2BmEe+9iKrY32ilF9sFEeZO3bsCHXJmWznwK+N6BA/HXjttdfCnnJUFjcLDH780q7HqClYYoCO8UD5xBNPzC5fqmLQ+tall423bt3aZ2P84eOPPy5Dx8Kvr1xEbJ4Y/Xr34IMPhr3ImewycdNkYhg5LNmiDW688cYyZvRoSUfdJIi6UDfbVtjwo48+CsdtbGbJ0WUQ7K/bfGOeSWWXy7ea+ljX9cGe6M+k3E7g6CvAxH7Dhg1ZvxjXkdOeo7ZtDL7HckfGHp5o8Ev5qG4QYBR90Y478ZPmLn0Fv0yNrZRfJ3+Qa2BdXVLIp5588smwF99//33YX3nllWHfhq78H3LHvFHWx3GWEp3dJGjZCdvmzZvDrz0a+Pg1nEfQXLQ5r4sn/yFXFzX9OqBzIidvik8++aRvD/z6zQWGi6x05djqysD6j//4j7O/3HORYOLbNNkWL7zwQthX/TLOL0LocP755webUQceZduLHo/RNQhqr38Od/zxx4c9eqE/53mvgok267D5VR+Z7PnVRANzlX0HrW9Ten5V5ELIo3F+wWTjfYNbb701nE/BgI5N0Fly9Usw7Uzbc4HU5A97UUfsR974nxnRBsjBPqRBv4ceeiicG0SOkM3VtticCzcwQdMkTTa2k1P0B12kIOWbOq/0+sVLN37sWbKlPkD9WPoALEvDzmr3f/iHfwjxOXWVDpoMgXTRJCNHF8n53e9+F/Z1YDt0IT8bdtPFHVL2iSEfOjABiW8GmvpYTn0kX/EibmPOscaaMc/6DzL45RfwP570kZZ4+RH1i/ujhXzWz3Las8m2Gk85J79VXVQ3yPEL4DxtgN9po3zqRRlV/O1vfwt7Kyulh2SoPjl9UXIUD1aOYOkLcA1Ajp4GAT5BW+X4SkrvFPglbcr4Tj5ABmX+5je/CeEUOdfAnLpAyqcmJiZCG0ouafmhB5/WTa/yW/txnOojOrZlNvl/rl/mjHk59cFGPPmS/RzHqWC6JXx5ADF8cYC9jvkCg+CLAr1JbDjHFyc415uYhzjO9S5is3nZkCma8qaQTtqQL/jqgeT1Bq9ZmYIvSSBfeTmuKidGeexmv+AgiFMZ6GK/xMA5aw/Ox19qka3RXfQuCLNfcKBe1oZ19h20vjnpSSMbU3aO/Wy7kEcy0JW6Ae1Enakf6WI/A6tfqn0hR04M6UmLTrQR+hJWG6RsnBNHmPg4Dn2Ulj02kM7WH6zdUm1RV9dUucPokspTBzpIZzb8tkonwilsGra4n9X1sRzbWtlscb+sirOb7IBMZLPhn5THMedV7xTkkxylY1/VnlBnW8A/yEsajqmD0rJRVq5fSB6ybJlxmpgc+WyxbmxA/TmmTNLYvpjKUyUHNGbKHuiBPvIDbEeYNOxjX6mTnYIyJI+N8pFZh2xMespGJ3xbOoumukDKp4C08iny46ci16ZVcZSJbLYq/0df4qR7LIu0omnMg7r6APKlj+M41RzHn15HGhruxPnnLC3FOI7jOAsMfqXmi1bxWn1+Bb7hhhvCr8yO4zjOwmRkLy4vCbgATk2VgR4cL7awX+QdZ7wskHGFJRsscbz07//+mPPnTU+HZZyO4zjOwqX1kwTWA7L+7+DBgyP56sK8hgvjT3/Kp4Vmwhs2zOwXU5h3A84/fybsOM7oWSDjyv/7q1+Fl5T/n//6X4u/+7u/K77etSvEnzgxUfznf/5n8b9+//vijPLjFY7jOM7Co9VNAi/+WLZv3z7SL1vMS/74x84uuvMy3PKTf47jDMECGVf+9//+38W2Cy4o/uf//J8Fsf/lv/yX4l/+r/8rPGE46f/+v/1HBsdxnAVM6ycJTg89atfFcLGFHccZP13347kIsxTpjGP/K7bjOI4z//GbBMdxHMdxHMdx+vAXlx3HcRzHcRzH6cNvEhzHcRzHcRzH6cNvEhzHcRzHcRzH6cNvEhzHcRzHcRzH6cNvEhzHcRzHcRzH6cNvEhzHcRzHcRzH6cNvEhzHcRzHcRzH6cNvEhzHcRzHcRzH6cNvEhzHcRzHcRzH6cNvEhzHcRzHcRzH6cNvEhzHcRzHcRzH6cNvEhzHcRzHcRzH6cNvEhzHcRzHcRzH6cNvEhzHcRzHcRzH6cNvEhzHcRzHcRzH6cNvEhzHcRzHcRzH6cNvEhzHcRzHcRzH6cNvEhzHcRzHcRzH6cNvEhzHcRzHcRzH6cNvEhzHcRzHcRzH6cNvEhzHcRzHcRzH6cNvEhzHcRzHcRzH6cNvEhzHcRzHcRzH6cNvEhzHcRzHcRzH6cNvEhzHcRzHcRzH6cNvEjL54x//WBx33HFh71Tz17/+NdjpzjvvLGO6hzL+8Ic/FGeccUbx29/+tox1FjK0KW1Jm3bRx37yk5+EbVj+8pe/FD//+c+DL69atap44IEHyjMLlyab0GepK3UfBd5vnVFTNY68/vrroT+3GROAvsFYQD/xucDSpOtr1Xynk5sEOuCFF144e0HlYvP1118vigurMxhvv/12MTExUTz11FNlTD8vvvhiedSOU045pTh48GAZcsZBV21Xx3xoUy4Cl19+eXH//fcXhw8fDv786KOPjmzyPF/Yv39/8c477xTnnXdeGdM9XfVbrjU5W5cX8XH4f5dQ95RNtHHN5lq9GCc6sY8tW7as+OCDD8rQ8Bx//PFh/+2334a9s/T44Ycfii+++GLJzD9a3yRwg3DNNdcUt912WzE9PV188803xWWXXVaceeaZxX/8x3+UqRY+l156aagfe6caJlIPPfRQGeqHi+yhQ4fK0PCcfvrpYdB3xgcT5+eee64MdQ9teskll5Sh9rz55pthG4a9e/eGSQCT5RNOOKF45JFHQt8f5eR5HNTZhHH84YcfHmkdu+y3a9asCRdp2oVt3bp1IV5h3dx1xaj9fxTomiU7bN++fdY+2O7Xv/51uDFcu3btSJ/8jpOqcQRb8MtvW5C/fPnyMuQsRRgjf/azn5WhxU/rm4Qnn3wyDNB33HFHGVOEx3r8IuUsPXiCwMQqhpuHxXIhWmrwVHDjxo1lyFmMXH311WHcXgjwy/eOHTvChK0KxiB+rPj+++/LmOFZ6P6fmtBgO9r7z3/+c7jh2rlzpy8Bc5xMltKPlJ0sN/r888/DQGrhbuuKK64oQzOQhomiHncySMX5LFwMSM86QiaZ/BLApjzEcQ5ZVeuG46VQWk8IysumR64MlHEcvyJpLW38aBb5xJOevX0kzTFlIJNjyrUX4rq8Mbm6spfNrL2RX7dcgjpiG9IhA9noyya9sAFh5FXZOlUfLd/g19l77703nLcXJNlW+ew5gQxsRxp04FfPFDmyUshWqh/2ozzyYw/iFC9ScZDjlxbsRFnksXnZoxd1Vxx1Ujsqjq3OJ0Sdv1GO5KEzx8rPMY/q33rrrXCesPyFtMrLsfJY32Nr6utVUFe1Oxt9uc6PgXqqDwjqShj7pGwMamd8FFSmIJ3qLF0oS9TZZNg2Bs5b34zbTlA3275Wt5RNYJA6AWVwzJbSIYb8aj/yVPVbyrS618nmV+GcJ7rcKHDzI6S76hnbWPYnDcd1/i/q9OaYtJTLMXKxBVC2zYc+VZDGbgK5iuO4iroJDTZ65plnwvFjjz0W7CCsn6I7fmBRnTiP/viXIG9dv62yTdO4Yv2JjWMrd1AoX+2QqiNQNvqThrQvvfRSeeYog/SjVL2Iqxsv62xdBeVLb/LGPjKIzkB+jtnQpwnyqj7Ul2sz9bVxIhUXg752Hmb7HmXF1M0FJIs6E5+SRRmKQy/bHhbVE7sgU5BfY676O5vk2DLZ59h0TphuyeTk5DRiVq5cOb179+4y9lgOHz48vWbNmuldu3aFMPnIs27duhBOQZrVq1eHfNu3bw95OT548OD01NRUOEca4Bx6kE6gD2Uojcq01VY+pYE4jrKQG6dDvvShfhMTE7NpCO/bty+EN27cGGRu3rx5tr51eavI0ZW9bIZMdLB6VEEdpQN79ALyEIfuKkO2II/IqQ9h2z6AXOUD1Yf8AnnUiTiOSUueWF6OrBTIlL04tvpLvnSw/pqKy/FLCzJISxryqQ8hhzhkk5d01Is0th1zfAKa2geZ2A9kX5sfPeJ6yjfQDx8jD3vkc4wegJymvg6ki/VWfW39kV2F7Ek6lUec7QPUnTToTZz0FIqPodyUj9g2S9mkN/jP1m2YNqYc4tR2KoNjQRrKUhpkkkbh2CZikDrhH8RLFm1aB/JIJ/noQnnIor6iyTdzUH2rQGasB/oTBuo4iP9Dnd6Erc/hY8iXDMrmPJC+zpbIx47Ikr4CmdK7CuST19o8Ru1i250yZQONKZLBeXRGN+C8tQ95qbfsTZgyoM42VX2IPXIoU/2VMOeII59QfaW7iNuQutp0lEdY7QLIJU5lkpbyYvnoIf9iky9Ye1bVi/Qcx2VI1yZbp6Bc8khH7Gv1gUF0Jj/xyKMtkV2HdLSy5TuEkWHrkIqLof5qI8lDH+lofQB9qZ+1mfIB8YqjTNnJpuMYOEecwqA4ysYuak/i5D+yFfHoSn7pRB4dW9tLj/lE65sEoHFkIIxiHVFgIDWQkOPaxo2hAZEZo8axoIOcF+PbBhPII16osW3j5MbZjgs0NmnQTRCO6w05eWNy9aKO2MJCHFsd6oBN8hWnTg+5trB5qtqIPMTLL7Bf7APksfJyZaVAfmyvVB1TNozjKK/OL6ugrCbZQJi0oq59bFxT+yDX6k1amz+li/zFyoVh+3qV3nZwlpwmUvqSj/wW4mwbg+plwTbEYTfBMX5p27bKJkB8rFNKT8K2fNpI7QTyfdkJm8ZlYjPirL3jsgatk02XslFMTr+FJt/MIbaZBRtU6SHfIv+g/p+jN+HU+E+8zRuPGTHqG3E66mXbJYXyWpvHyH5KQx3isuw4hszYpjY96Zr6LeGUbeRb1j6QGqfl+9bmqq9tP4jbEP2sn6v9rJ2oY9VYJvnUm7BtB47Ja+VX1Qs9qsqgfk22TkG5No3spDYZVGebTnF1kCauk9Un1Z9ScTFqW3udj9sb+8ZpAB8hXmOi8tn2hqo4q1tcJmAjbGfbijxx2wHpmsaO+UIny41YWvT+++8XPScI4U2bNoXHJ/Yx4MsvvxzWPfJoRRtfDIFPP/007KtAVsyePXtCOVYej4RZ0sJjMr6yA/Zxc5fwKImyeg4wW/6JJ54YzsVfUTjttNPKoxkGyTssqfcCeFw+CoatDy+IwllnnRX24pZbbgl76ctjuKuuuioci/gReq6sFMjfsGFDGWpHk1/OBTntc/3114dHozx65XEoa5ZzX9KP14a36esxfAiB95306FZyhiX10uGBAwfKo2p4aRX72X7FcW9QD7ZFP0vdevlBwT/Z9Pj/5ptvLs/MIN+2ZWKz3vhe+yLyoHVKjSlxGktOv83xzbZgn94Fuc8f+dgG6Bo1qP8Ponc8/gM2xjbYCFheUge69CYcxZYtW8qYGR2QkWqXtjSNY2effXZIx1IK+YCtQ26/TdlGxH2IMYXlIRb8u3fjEPQdFPRDTy09ufjii8szM+Ab+A0fYrHEY0jbsaFpvGyydQxpKPfkk08uY2bsxHigd0dH3fd5eRzfpu113Wvy8UFILaF79913w77NXKAN2Ig64jOWeP6q9hnlmNclndwkCAzE+wncLND5WIduJ0a9u7PgqPE2rPP07uKS8uiEXXxFJ4dU+dgghzZ55yPD1odPilniAYAOVXcxsTTJiuECgfwuqfPLuSSlk9qHi8err74aJsx8mcyu3xyGrvo64wcXx7vvvjtcrJE7VzCmxYzjSyf4KDcHTIZOPfXU4vnnny/PtGeUdRqk36Z8pcuxkAl2qgx9qnlY/0/JzNGbCRTvZzDpZxJh14JXQVomILqxIL8mfW3Bx+BHP/pR2EPdOMaEiJeeee/w2muvDX3U/ig4qn6b8tfUBDYXbg5ob+YLfOnJomuJnWxX0bYf1Y2XTbYellH2fW5qNeFlMszNgnxsXAw6F+iC3PEOUu09H+d/rW8SUi+M4NhcyLhI6K4Oql74qbsjreONN94oj46iwVbOPmrHTA3uOQM+tMk7Hxm2Pl9++WV51I8dsD788MPyqJ4cWRZdYI4cORL2XVDnl3NJU/swsPOJTPouLzGm+nYuXfR10jMxZlLCk8phf0zoCsazqvFE308fBTfddFOYwHz22WdhUlh1sUtNHDShrGLUdcrtt8OOHbnw62Gqnm39v43e+DOTgttvvz082WjKZ58mMAmnPnVPinLBb5jQrVy5su/X9KZxjLHznnvuCX65YsWK2R8FR9lv419pBboPCjeC/C8UvsTIZ46rfsT55JNPyqNq2vajpvGyytZ1pPS248Go+z725CZ8amoq+AE3N+Nk0LlAFzCPyPXFNmPHOGl9k8D/QkhdnPSoRw3C41wGovii9cQTT8w+ThsEHovxiC4u+7XXXgt7fnEDe5NSh/1UXs5n8xiwcYatW7f2dTQ67scff1yG0rTJC4PqOmqGrQ8XPOAzuhbV6corrwx7folgklQ1oEGurBTI53F1nXwRp4nDTX45Kup8Iqd97C+nLNG77777hl7a01Vf51E7F7Ibb7yxjBkPqRtG6gTPPvts2AvS4j9dTNaqYILLcriqX0z1XXh9lUnwK2mdvUddp5x+23YszEFjw4MPPhj2wl6QB/X/tnrb8pj8oWM8dqXQ0wSWGfF/DnKou0agO//jCLZt2zbrY03jGJNXO4Glr9NXud6Oqt+iE+NK/EMDdRjmRoSnRhdddFGln5900klhz3KgOtr2o6bxss7WKciDb3IDZH2TttTYNuq+z9ijspHFJ4vjtrO6QRweljZzgbYwj2jyxXGMeZ0y3ZJeg8y+JKOXW3qD2OxLTopj33O+2RdAtm/fPruvwubRyyZCL+Kw8YIMckirF0lsXs4Rz0s7ihPoShh9SUNavTTEXuWSlzi9+AOKo56kZUO+6iwdbZxoypsiR1fV29oeyEO6OvnYkTT2hZ9UvfXSn30xKac+nKPNQWWoTMmX75BfqDziOQ+qN/nVRjmyUkh30lIWm2RZ/7TySYNc8lAv2oO6NvllCtuuQu0Y25A0pJUdbN4c/61qH/VFwmy9C/JsWwFh+ZTajjhkyt6CNMjmXG5fB+koebIldgTqhxzi1E4pVL6tn2TZOnGOuJTdiZftgHjb1sCesNWjyiZt2pgyiCMNcdYPVY7sIjuTRnaDVFnsB6mT0oB8rKoNgHOkoQzVRfnQLdc3m5Bt2WybWVQH5Mo+1hdkN8pkI709Txj9OKc6N+ktn0vVhTx6kRP9pVcO6EX+XOQvVj76UD7lxudAurORn/OktX5Cu9owadkrr/yPOHQmDtux1dmmqg+Rh3pbfyINcQqD2sXmpwzKsuWpTZFLnPKpvmD9lTRsqgvpKZe4QfqR1QvIr3aQH2oPyKqydRXkJQ1yOaYeyKQsGFRnW5ZsYtPFUCZ51S6Eka3y5ZPYAjnItPooXYzaSLYB8hOHDGHlA3og36bB/+N88kt0F+hCHPmlFzoSRznyAY5tGvZqV+RaVA/qS/ls1jepE+dos7mm9U0ClaNiNJoMQuVkPAthOR1pbEOnIJ3drKMCYRqFc5QdOy0Now5NOhu22AbDcZCLPOJVN85rs3qTRvVGtpxBTmS3mKq8dTTpastjS+lBXIzsoo06xnGEY1sQJ5rqo07JOXUGQCb14ZzqEkPbWtkqi7zWz3JkpVA+NnxadiNeaKCxdWCPr1ubclznl5aq9smNA+pIuMonhGxG2rh9qIPOsdFPbV7SIp80HJNfadmsnWDQvs55Kw/5QFsQplzqlbogxFg5bIPYM46THoA9sJPO0cbkEVU2aVM+cbSpfJM2xLYcU57ayOrGudg+sVwxTJ2q6pkit9/W+WYdsd8ofwz1xCbYhjTUWbaDQf1fVOmdaksLdpYuqfaqgzJz0qd0sBs6IMe2g4X8VeMY56wfcB4/FchVPGltv62zjZXJFvtWPPbQTlb/2B/kCzaODR2QpbZDL9qb+hJn2xiZ1m9ISzrqKx9hP2g/stSNl022rsLqHfszDKNzUz0EPirfYePY2pT66jwy0YU9+lgdLJQlecqXihO2/tgMnUSOLDZ0ieOEraP6sLVxnC+uV9XYAeovnK+yx7g4jj89ZZYMrIvj8f0Sq7YzIDwWXbt2bXihjOUAjuM48wGWM7AUqmoNveM4iwOWJfZuIFov/2pDp183chzHcZyRwdc/pqbKQA+OF1u45gsnrFsGv0FwnMUN7yt88cUXc3qDAEvuSQLfWeYFmsOHD1e+COg4vNTIF0c2b94cvnzhOM48gEn0T3/K52Bmwvr/JospzFeFzj9/JtyDp5p87lRfC3rmmWfmfOLgOM7o4CXzP/3pT8X69evnfJ66pG4S+KcVlsnJyfCmueNYeMRnvxTD4z4+jeg4zjyAL6R0MRmH+RiOrkncJPB9/FWrVoV/guXXLMdxxsWSe5LgOI7jLHC0REe/uC+2sOM4zjzAbxIcx3Ecx3Ecx+nDX1x2HMdxHMdxHKcPv0lwHMdxHMdxHKcPv0lwHMdxHMdxHKePBXOTwCeh7rzzzvCFB8E3o/kSzRlnnBG+ACH4vizpOFcFaV588cXwz9XYFhLY4oEHHgh1tPUelK7kjAr04x8H8VUqdERX5yj4sPoENsJWxA2L7RN1facr6L9/+MMfQv8dR3ldga7YvI2tLfQ92m8+9sGFDJ8xpk8stPF9IZC69mr84DPjbfszbcfYFn+R0FnY5PbJxdZ36RNsC5EF9SThm2++Kb799tsydJSDBw+WR4Nx0UUXhf++vNA4/vjjwz5li0HoSs4o4CJ0+eWXF/fff3/4nxYTExPhv4xy4+DMwADK99LpF7t27Sr2799f7N27tzw7HMuWLRtrnzjllFOG7r9OHkzcRoFublJbFxPFtuDL/E+cUUM9UzbQRj/lBw79I7TFRNx3u7L5WWedFf4nhDMco+rzbcn1j3H1XaeZBXOTwGToggsuKEMz8M9lLrnkkjJ0FP75BBOne+65p4w5FtIs1P9aid7Lly8vQ8PTlZxRwGSXmxfanbbiH5rxIS7/J0IzMEFjED3nnHNC+I477gg+z35YsPPVV19dhkYP/sfFYKHBuIKtu/onN3z3Ht8e1ffvt2zZUh51i/TmBh62b98ewkwcV69eHf7XCL8GzxXoxy/dowZ/4IeMNWvWhDD/fwc7sE1NTRVXXHFFsXPnzmCT+Tp5G5TUtbfL8QP5XfWvpQY+dujQoTI0v8jtk+Pqu+OCG96FetPr7yQ4juMsUpikj/pJzWmnnVYezcAE7/e//32xcuXKMDleCk//mNBeddVVZego/KjBTcQ777wT7LFp0yZfVuaMDPraXN6YO4uP1jcJdt04G4+ZdVGI1zhzzN0h6XDkeE0v69B0nv0wv7rUravmnNbgUwZ6p2AQpx6kIW1KVwtlkVabLgL2cTxpqkA2ZSgtesXlWZ2wzUv6T50G7Kc0beSkkI6yHfWJL/5NdrPtQl7Zjb3SyWb6j8ccswke2Vt/49jqwXm1MTKRzTG2Yf07+lG+9TW960DZirM6CaszMnPekSCNdCUvOqiOihOpuBSkWbt2bThmTxiZoHaSrJQPWD+hHnE/EXEbWThn2wF5th2qsO1H2Q8//HB5ph904nyObNvmoLxs8RjCObUx51NtWGcf9LBlAbZX37D2pxzSEyc/iHVCd72XoTYU1kfZ23w5fYkymaQD59hEUz9qC5NmlnOClq8hv85nbJ04xlakh6a8g6D2QL5kYWsLsq3tSdNE3VNZbha2bdsWjmOfr2tnkO+wYR/8RQxrU/ks51RXNvkO55GFTPLEY/kgkE/9A3mpOoL6gerx+eefl2eO0uS3TfUijnOqF7a1yEbSAVmD0GYsAJ23OuT6JrZhiS5P4Ll+cp52r7OJdFR5xFudmuyZgjKt/uTrkir5g1wHwMqxG/WTj7BhA6WP48BeL9jwSWsfa0OLbF+Vb94w3ZLVq1dPb9y4cfrw4cPTBw8eDOE1a9aEc4R3797NP2ubXrdu3fT27dunJycnQ3riJiYmQjogHfnIgyzOkYb0gvyxypy36ci/b9++EEd6C+WmykA3Qd6VK1fOymNPmHzkSUG86kR+C2Hk1+VF9q5du0JY5Vmdpqamguw4TVxvW2fiCW/evDmEIUdOCumIvTimLPLR1qLJbmxqF2yFLNKoTaWTSLW1ylVawsgnjroBe7UFMihT9mUjHttKT8Whj+RyLtYJudQ3zhf7mIU0ans2ylB6wsiz7ZyKq0I6Sh8gf5Mv0c9sO+EfyCFeEMaGilO72TToSRrKpB0IU3Ydqp/1I/LEduR8nAadCaewbU590JP6URb5BPGkUd3lY9RPkKbOPsSrLEGc6oHt0VN1ZUMG9SCOvFYndJceKhMoD5nKhz2UhnBuX1KcBZnooHTWxupHg6Ay2Fuou3RWuMpn4jqhG3aT79blrYP8cX8in/yLTbZVGwO2kF+gv22zKlLtaKEszrNRB6hrZ8AO6G91tXYe1qbIV1rkcU56kIf6SgfVn/PIFMSn6kuc1RGdKUt1RBfSWFmUb8skTBo2QX7ScE5hdCJOfkv+qno1jeGcRxZpgfOx7zSBbMpDLvmpIxvlstWNBUDetr5p6wR1Nmlqm7q8KZAn/UlDWvSTPEj1yRSpdHXyaT/pj52xmfSPbcR54uQ3yFSbCY6JQ4aI49CBsOxNvMoH9JIOti7Eo7vKIw365Nhl3PRfPYaAilnDYhyMZLFGExiDeDkbcqzjYUTO0+iChohlq1HUaII421FwGFseqAzbMDRmrKscw9YzBlnUAWezEFaHToHMOI9sKAdGp6o0qjdpbR7ACeO6NclJgY7ktcQDXK7dCMfpiLNtBam2RnfqZFG9U35i2xrkK3FZVXHWdsi3AzVogKoCmbG9rQzk2zIgFZci5fc5voS+VgfZb9A2Qo7No3LqQLfYjzSJkWz0qUpjy4shP2noh0Jxgvy2vdT/43o12SeWC7RZHJdKpzjbbqm2RI+m8ZBwUzuldMjtR7moDOmCrpRBnC0nx2cIxz4Mw/gbxP1J1wHrJxzjc9Y3SGPtH/f9FKm2jeG8TdPUzsiM7WF1aWNT7BL3Ncgdy1N+C8RZH6Qu1q/Un5WP+hOObYzvEC9y/baqXqRJlaF2R584X067xww7FlAW4ba+yXlrf6izSV3bQFXemNyxG3lsTcTpcuTLptaGKdsTjvsEcbY8bECctUUcJ/9jL/CpuH5xXdA3Ll9918qaD7RebqSXJfVIhS/QpIgfxV5//fVh/9VXX4W8PCLrOcDso5cTTzwxnO/qDfdXXnklyGe9rIhfjEKPXucrzj333DJmhvXr14f9yy+/HPYpkHXfffeFx/s89gIeHfGySt3LXMgkj+rNJht++umn4VEaOl122WUhTsT25HF2rz3DnkdrPNqytsuVkwIdeQRnoQzaHga1W6rMAwcOlEfVYCc9WhXUt9cpiz179pQxR7Ft3Rbks57YthP2xW/V3jG82Ied6BdKwyPFUdHkS+pnJ598cogD+U38wnOqjY4cOVIe5fd7C7aI123HLy6zNAVfsnW45pprwrmcx9aplx3REfRyN/2SpQ0XX3xxiBeD2GeUSI+c8XCYvjRoP8qFvKtWrQq60ta9i2Dx5ptvlmfzfSZ+xwGG8bcUzz33XLCr9ROOexOlYHP5CmF8lXrAKPptTjs3jSFtbArxuI6cYa+BVaA/m5aD3HzzzeWZGd5+++2w1/I0EfflQfw2rhc0jeFnn312SMe1U34wyvE6ZtS+mbJJU9uIVN6YtmN3E4PIj30HZD/o3XTN9ifLoHMGXR/YY8d43lVF07V6PtH6JgFDY5i77747TEB7d23lmXr0VRYLxo631LrEYfjuu++yHB3sZAhSDpfi1ltvDc73+OOPh/Czzz5b3HbbbeG4DmyWqjud/4cffghp7MSlCjoBdeSGiC+a9O5cyzPFQHKGZVi7DQIXxZhRlJNi0ny1xG5VAwtfaNCAweDPRXzUaw7rfKkt//Ef/1EeDdfvudBVTVYs+G2qDk899VSZYni4OTjzzDPD1z/4ZOx8JmWDrsbDUfSj22+/PchFT/a0l5U57LUC2uSNSdU9vtnigs+7A4yjjKnxuvBhsH1fE1KI25hN7dw0hnRpF0uXYzn6MgFlMn/qqacWzz//fHlmBpWVM0Fr67d1Yzhy/vznP4evUV177bXBrl1Mbgdh3L7Z1DaDMsqxG7qST3puOnTjgE3hxhtvDPtBqJt31THKa3WXtLpJwMFwLjoYv5gPUrnvv/++PDpKytm7GJzFe++9Vx7VU/X5sBUrVpRHaRhk7NOEp59+evYXmDpSLw9jW3vn+8knn5RHaUjLS6wMHjg8F5cUTXKqSNmOOlodh7XbIPBLQgpuzkbNG2+8UR4dpck/6RsMSFNTU6GPcOEZJcP6kgbJHNr0+w8//LA8qobBmzJi2o4FvHjG/93gSzN8UrdqUtLWPl0xyvFw3P2ojc+0yZuCm9WUf4H+dwxQDpN1bn74xbKt7fU/TJhE2IltUztXjSFd28XS5Vh+0003hRvyzz77LDz1qPrscc6EvK3fNo3htAtfo0JX6sqLwFznxsW4fTO3bXIZ1dgtupKP/XjSyXyJX/GZ3O/bt69y3lRF7rwrRc61ej7Q6iaBxyI49TB3X6+99lr4ZQSjstHJt27d2ucAdM6PP/64DLWDgdQ+skshPZjkWz10fN1114V9HXqawONAtqZfOVh2xS9F8STkiSeeCL82nXTSSSHc9Jj33XffDfuqC0WunBT8soLtmGRZeGJi26+N3WLiX7KAx6zYKm5DyunyApmCsqlffCHDj6vgV2vZgMeRO3bsOEZ/ay+Iw1WkbrKbfImNdmKibMuhTil7VzFsv6e/c0Gqq6N+hXnwwQfDXnRxkWEZDksaaIsUXdmnLaMeD+eiH7W5VrTJG6NlrjzltdC++Kd8w451TBrxyyeffLKMSVPnI/gQfgX6tT+nnevGkC7tIkYxljOx27BhQ+W1kF+wgXR1tPXbpjEcuZKNroyj2LftP6jMZZS+WUVT2wzCKMdu6FI+NuSpNssh+fWeG66qZeH2Whtfd5vmXVU0XavnFT0DDY1e2tALGLzM0WvIEMcLJWxAuDfwzL7swV5phF6MIh0vcLD1OkbfCyi9Th7S2Bc7lM++GCO9SC8OHpz5MoLVQy+9rFmzZjZOLw9RJ8pm45g0ufQuAsfoWYVeTCI9tiOv9kIvtFidZGfqTd1kB73ExB656K00OXJSkA67Ka90tC9M5dhN7UJeQTribDriZBNrQ47Rg7TSFb2Js7rLTzhnkY7YQaR8xerEMSgdm2yAjvKbFKRBrnQjjK6SiRzkoSe+iF6UKR9VuhSpOlq7yYe0FxxznnQcUyZp4nrWtZHSoD+gK+mJs/0+xvY32cT6JHJBdZOOnLP6pFAe2x6SLX1Ig20phzphO5UtGzXZB1SW9OUcdSKuLh1IJ9t3pIdtS8WhL3nY0Eny1QZ17QSSg13Ig93ZI9e2A+mIs/1ItqjzcZAfyx9SSF+lSfmM0th6Qk7eFMhAlpXHnnqrjwF7wlYOYbURNpE/VCG56GTtRV7yIS8uA5rambz4kdpFsjjfxqYcE8c50lhyxnKQ7uyFykNngb7kRQ71QJbyKa9spzBypB/1Ii9xkiV7kJ44hevqJd3Y0AFbktb6AbJtWOUDtqWsKn8DylddOBY5Y4HyUobVIS6TcJ1vcl7jAvnqbEJayiRNqm3q8qZQPaUT8qQLSB4bx1VUpWuSr/OyH8jO1oZqS/Zs5EOeHZexB/nkE5yXLPbYAxsRVj726EYezskvVY6wdiUe2drPN1rdJICMRoUxJA0hIwoZQkZhn+poGNUazjolYeK1YUw2G0cadIjjBPIkRzrgKDiaLYt46cF56lLn0DHIwklywZHk3JSXchTiOEca9EUnysAp0Y1NdWOPTNKQxzp+k5wqYttZmaLObnG7sOXGVbUhG3ZTRwR7jk22TPlKHMeWKl9wDlsRJ/+pA39WejaOrZ+ht86jj9qQdqGsKiTPbmJQXyLtoG0EtC3H2IE02IIw8XVYH6Gu6vPopHZEH/ku6bBHnW+m2jwVh+1VtnwT+xNn26XKPhDLzbVZlU5scZyoGg8HaSfVkfrYPtvUj4DyyYfsFKky2arS1/lMlf6iLm8VVhab9MIm+JTisU+ss2zGefZ15cRtGG/YGVtW+XBVOwPnNEawcWzPD2vTOD6uv+2nqr/VP64zeleVh98hg4364Gcck0cybZtwDvmcxy/RRTT5reK1xfUiLHtSPyubc1Y2522fIR9xpKlCebWlbKK6xXHQhW+iM+coA3mSpc3Ka2qburwpyIM+0i8eu3PlVaWrk5+yaZWdqTdtKTmpNIBNiCMdedCDfMRTLpvKYI/9pJ/1Hc6xWUiL/0q+LXc+cRx/ekqOFNZ89QwQHo0tBXhEzMtGo14C4ziO4zjO+OC6Hi8TcRYWvKz9q1/96phlVixdYumW/SpbF+g9oq7ljoPWXzdyjuWZZ57xGwTHcRzHWUTwA+Bdd91VhpyFCO8j8KW+1HsYfBab91dHwY9//OPyaGEx8psEvQj0xRdfhP1ihBenuFPkxoAt57OnjuM4juMsDLhB4NPtvNztLFx4EZwXtnmawPyU+Rsvs/MUgZeiH3rooTLl8PDxgVWrVoUykM+L0XzUZiEy0uVG3LHde++9ZWiGMaxuGjs4AXegfON427Zt4VNijuM4juM4zvyCGz5WfPCFIVizZk34yhMT+S6+9KQfjpG/evXqsISp7p/qzmfG8k6C4ziO4ziO4zgLB38nwXEcx3Ecx3GcPvwmwXEcx3Ecx3GcPvwmwXEcx3Ecx3GcPvwmwXEcx3Ecx3GcPjq/SeBTUnz2ic8/6fOnztzCV6ZoD964T8E/huEf3vk/iBkcPpt25513BvvNZ+iL6Dif+mRXtpvrNqBf0XcuvPDC0Nccpwo+jYiPnHHGGX59nAfQd7k2zmW/Zc7E+IUelvk4ZncBX/3RPxdzBoNrHZ/ZH6f9Or9JOP7448P+22+/DXtn/vPKK68Uu3fvXjD/AI6BXTei6MwgShyfNRs3Z511VvH++++XoflDlzd8DExcrNjb7z+3pSvbzYc2WLZs2ezn9ByniYMHD5ZHo4OJL/22aet6wuE/Ng0On0+f6znTKNrNfaFb5uI60/lNAv+tbvny5WXImQ/cc889YRBKff9Xv6QslBsEePvtt4tHHnmk+Oyzz4Lua9euDRe69evXlynGB/7exXeVu4SB+dChQ2VoBv4BEF87nk//CKgr2811G1D2Qv0GtjNe8NVLLrmkDI2eXbt2hX7PNjk5GeK2b9/eF7dixYoQ3wWpsWc+Q9/l2sg1cq4477zzigsuuKAMHWWcYzY//jz33HNlqDu2bNlSHh3lzTffDJszOPgCTyHHib+TsMRhkHzqqafK0MJANzTSnYGUX5LncqI4X9Cj6y5hAoyN2TPJ4aLKTZrjOPObpn/syaTjuuuuK0PtGMXY44wefijcuHFjGeoOfGEcT8yc0dLJTQLLPViPy6NL7nJeeuml8sxRcEStG2ZjokdcFVpnzC/EDD6SrzBoiYnWd7IEgjR22YnOS7fU2kPkIVe62Y1fRpBtdUEOG+WrXvyiTXri7SM25eW8tQHpkEWc9CZN/HhO61d1PrXMA1vJPqSxdaQMLc2JqbNNbFvKUNq6pSbxI24r08ZXgb74htJRL+IE9qEdkEu82o09OlusX1J/bB+nke0lw/pOFdZuyOdfrsdY3araLYY6SW6ch196bDuSlmM2+QxpLr/88vDYmv90jhzSEW/b0mL1jLd//ud/nj0mjUjFQU6dm2ynPkJ+0pA27hOQ0wYprB/HsgfxrRxy6xKjfORhs2Ol/ABZtGXKD7CNyrRt0NWYqjKJR4byAvllN9JwbH2OvLI/51M+IshHOm3IEiqDLfZpiH2eciiPDR0sdvxks/Zusscg9WkC+dIDWanxijbmHGlIS5oqcn8d148uQHlVvge0terLHh2gauwRVT7TZF+F2WhzxQ9ClQzKtn2+CvU59CcP6TmW3+XYjDidt/WvomrMlox4k24wqE9SH5awvPXWWyEPYVE3XkKVbYnfuXNnONZ5sGOQsG2AXTiWPGtHsPrEGzZLgXzsj7yUfPIpDtm2bdS28t3YBrSN6qO0sRzJZlNbUtc4DurGojljuiVTU1P8x+bpXbt2hfDk5OT0ypUrQxzHcPjw4ek1a9Yck2bdunUhHEN6pSHfxMRECG/fvj3IXb16dUjXu0udjSPNvn37gkziYPPmzSE/6YDylVZwjnIUR30IswnKpkxkIRs5kks+znGM3r078lAGx8pLWuLIRzwbedjQ0ea15e7evTvkQwaortRTkIY8SoM80hAPxEsnS5NtiLe25djKwk5VKB9lWKgjuqrMFNiEMkhLOtkdiKPuyCYNeqGTypN/AemsXdgTRhZygPT4C2E21bMO8li5shubwDboHaepk93U1siU7bEr6UlLOehjicsir+RJPmBf8qrNU76PXSjD9tVUXE6dc2yHLshBN8pRnTkWOXJSYDP5vNqbPMghnOtbVZDO1jenLjGcQ0eVhw7UVbbGztKbPbLB+obsIt3Jg1zJQn5cP/QE5CmONNjEjqnEsSGPtMhCpuqEHur3Oi99mnw8BWlJg5wY4qryUmf0IC86UTZpyUMcYUBHwqqfyrN1qLLHMPUBlaF8QB7r0+zVVrKt+ic6AT5i+2ATKld1jWnyPSCs+um8JSW/zmfq7Kv6kY6N81W6V1Eng7Ipr84mgN3Vv0hHHvkeMptsRt8iP2kpkzB5LMhFvqBMxSFTyC9F7IPD+iT6Wp0BWeiJzrKdld3UPnGdSENe6q+yiFMbYCNkkEZ5ZVdQOvVd1ZV8VahM0lGu8mJf4tCDskintrHy0Ic42UB+wDGoPtiJtOho6yOoB3GyHcRxlEFYNpTecZun2mqU1F9VM8BAGMeiwVmVxxhVaWisKjBEVWdSY8uQCgsZPO4camSVK3mkF4qzDYou1DUGedYZ5CBxXuIsKsMSl4vd7CCMY3KedILztu5yftu54rJybSPb2nSKs/VLkbIXesYOH0N9rO7yEwvhWA5x1i6UHadRp5R80sd+GfuRRXaL0+CjVkfsmEpj2zImp63VjhqgIG5biPNBqt2UN8f32SxxXFOdB7FdXX/KlZMCXWxdZWNbHuEm36oiTtdUlxT4QdNYmWojjqvirE60GbaySJ5sqnyxjSk/7tOqk/oU8m0+7C2dcnw8hfSzbcdxXI8Y1cOOX5SJDqqHxkvZFpBrfbvKHsPWR/JkF8gZr0ifGlNzUblV+lFOk+9xbNshLj+Wn+MzVfZFziDjc4ocGbHOKTgf1x1ybIaPqK6g8xbJt6T8xIIuyLa6U84wPhmP54AcW994vERmnW1TdYJUWaSL/T/WmzyxLxGXKiOGNHGZKT1ieTljOHnisSiWnWrLOC5nLIJY9qhptdyIxyk9Jyouu+yyMmaG+MXll19+OTx60iMUtkcffTSc+/TTT8O+inidec84YR+/HHXyySeXRzPs3bs37PnyieWWW24Jex6tgXT96quvwt5y0kknlUcz8AgphkdPbHokefPNN5dn2sN6UtZ/87iJx3gXX3xxeWYGHlPxeNfWnZegeu1auxY11zaCN+pj3n333fIoDS8s4Rv20RwvRt16661lKA31RXc9xpOfxKRejj9w4EDYk5eyzz333BAWerEZfwReIEQ/ytGjSh7vVcEL03DRRReFvYh9dM+ePcWmTZv6/J3HubRV1SPRpra2pN69sI8scxnE95toqnOu7Zr6U66cGPWV3kVmVr8TTzwxnIu/FlHnW4PQVJcUbcbKXIYdUxkX6FdWt2uuuSac06P166+/PvQnHqfjy7zDohcvB/FxC2NGb8JSPP7442XMzBj261//ugzVY8cv6n7VVVfNrpXWeMmetmJpQNXXQ2J7DFufmNzx6uyzzw57dFR/rxuvBiXH93oTpmA/bAVN5ef4jIjtO+j4nKILGRb82ZJjs9xr2qDQFoyDdllZlz7ZNF52bdumcZcX7NVvLeg4KqgfW9MYnrr+xPOoJgYZi8ZJq5uEH374Iezjzp2id0cYDBBvgzoVBhwE6SjiCS8Dce9urfjd734XOhYb71Rw4YwHhBSkx3mQceqppxbPP/98eaYb6OhnnnlmuIDv37+/jO2GJtu0gYkBNtTXDRh06ORNNqUz0jnuvvvucPOJ3wzLkSNHyqMZ4o6MjuqEDDQMdrRnFZKX4xeTk5NJf6/LO8q2TtHW92Pq6pxru6b+NEgbpEjpl/s+w6AMOzZ0NVbmMsiYim+kdNPHD5ikvPrqq+Hiji/Ha72H8XH67X333RcmY4wP2PXpp58e2h7xl2QYm/gBiE9BM17ppimHLvts03hF+M9//nNxxRVXFNdee20YJ+OJdluafI/Jy8MPPxzshM1YQ91Ek89UMej4nKILGU002azLa5pgXGHCnLJhlz6ZqpfGy3HY1nL//feHHws0puD77733XnH77beH8CgYdgwfljZj0ajo5MXlTz75pDyqpuplZowyCIM64Zdfflke9aO7VgbeZ555pvjuu+9Cx+JumRdH/vVf/zWcb+Kmm24KHZHPcXKB7HKiTWegY7zzzjvhazJVE6OU/RnMm2iyTVvs04QXXnhh9klFFbQtnZF68rWitpMiBskU9pN/lMVAOzU1FcpkMG8i58L8xhtvlEdHqbug5rZ1l7T1/ZicOjfZLrc/DTs5SrVBzkRnGIYdG7oaK3MZZEzl17FUemtDJg984pAL6mOPPRYustDGx+3TBJ4m8SvqsNjJODblE8pMfBmn0D2XrvtsznhFn+WXY3yKeF4W1q+4XZDje4zLTBSZnPFUoKn/5PhMFcOMzzFdyKijzmbsu7ymAXbjaQT9K/a5rn0y1UY2btS2tfBjxrZt24oPP/wwPNnA9/nxYJSfrx3l/C6mzVg0SlrdJGhJgh6HVsEjaO4444nrE088MfsINRctN2j6Jr7uwJ588smwF99//33YX3nllWFPJ8bZuKjxmI47ZZw+/hWnCgbADRs2ZKcfBH6N43Fi1S992I4LJ4OCHYSZQMW/SllybdMWnJyyuFmgozV9S57HszzivPHGG8uY4aBc7MIvj9YuOtYn//jFRXHYeMeOHcFPqyZj/JIATY8RmcBQdjyRfe2118qjY2lq61EwiO9bO0Icbqpzru2a+lOunBj5xNatW/t0Z4L18ccfl6FuGWZs6HKszGXQMfXBBx8Me2EnDUxSBP2di7iWV7TxcWyopwmMJ03LFutgadzExEQ41rLJYSZvXfXZ3PGKcUljE/bARxgvtXy0LTm+Z9uXyRk+EV9HLDk+U8Wg43OKLmTU0WSzrq5pgvGKJS+bN2/uu55ST+jaJ+vGy1HbNga5zDWxNdcqrlmjvEGAYcbwOjTHAnsMbcaiUdLqJoG7SJwVQ+pRExuOCvzCjVNx8eFxFGuWudNkoGHPL9ZNxke2OgCyuEBQpu6Q9Ss6SyYsOC0Xgjg/Tm/zqxPzCyo6sfHLFzqSHqgTv5wgK54E0ZH4JYE0pOcXc0AvdSI20B64GwYrTxP7v/3tb2HPL0U8TiMNeVWPL774IuinCyf6s/aQOHTnE3T2gh+XlWsb2da+fyDHrrsJsehpwj/90z+VMdXov3XLhgwK8iUuKmyqg+IhZV8mu9iFixPxbBzzq446IXX4x3/8x9l2pp60Z9VkjHzkx76yG/ro8Sv6Ug43bZR9/vnnh35Bu/AIse5C0dTWoHa0g7DawQ441MHaDdSW2kOO7wP+wOCPTsjTL8Pom1vnXNs19adcOSn4FYp68NSEOrCxvloTzlzfSqG8aiNoqkuKnLESnwDb5qn21XmlF23GVN0M0rboRlszSdSEBdsRT53ZsIcmijk+XoeeJuiX2VxY5iF/phwmF7/5zW9CWE9NNcljjy9JP/JV2WPY+qTaKme8Auqi/q997j9nk/9ZH7Xk+B5PhmQrbIOtWP4k4rEnx2eq7Ns0PqPbqlWrZse4FE0yUv02hc7H/bbJZjnXNJB86QMpP8F2lMdTAoGv6IfaYX1S+cgjnZrGyybbqm9RZ/QhHfLxGfUxUJ2bxl3kM3ZhX23UiTradDHSz6bhONYDdKw81KdpfocM2U7oWHv9oM4cC3ug97//+7+HOJ7AY4OcsUjlxXqPlN4dWWu2b98e3oRHHG+79y444a1s3nTnjXjoTRTDW+KkIS15muhdXMLb7OxT+TgmXhvpYqxuyLJfGQD0Q1c2K4uNfHqj3272DXXqSDo2ZFNPjtGlKm8ch46qo43jLXd0JoxNpStxnBO2jthYNodYrtW9zjacs/mQk4rLgTKsTnVQT2SjD7rqawLEp2yXihPklf3QQTYU1Ne2O8fWrinIj49LJjbBDtid8gR6STY62HMpmto65R+pOMAnCXMeOXG7KZ3KsDbQZtsMn1YayWSPHaw/NdWZfE22a+pPkCOnCmTKzuRRew/qW5aqdDl1SVE3VpLXlqO62zjCxMdxyk/9lSeWX5VPoDf+ST7O0w62LoRlXzY7HjX5eA45bSzULuSRvtTHloUOsgV7bK/60X519himPnXyqJfkUb5kCuojXdlIi445KI/dkBdT53tA/WRL6WiJxx5gL5tyzvpMnT2axmfZ2uaJqZMR99sqOdbmbLFNmmxG3TmHrpRJOxOW7VLyY7uk4uINhvFJ4By6x+mqxktoah+VjVz5qdJqi9ugKg6QjS7Sx25VbZcrvyquaQxP5UnFAfkJyx7EUxfikcUmX2Afj0Vg5bJJ9ig5jj+9wuYl3CnCKP+FN3dwf/rTn8J6Mwt3bb0GKu66667w6M0ZDuzLXTC/lDnzC/f9pcc4xtRRwlMv1j7nwC92rPHtXUjdjxcxPGnRr6/O4oU25iM5cV/mOnbDDTeEX9ed7unkxeWFCo9rWJN9zjnnlDFH4XF27y5v4E9BOv1wgxBPQp25x33fWWgwSbjtttvKkFMLE6apqTLQg+PFFu7VkesLP2Y4Q7JA/IQbfpZ0Xfr3f3/M+fOmp8OyPIVDnZzOmLdPEpjEsBaOyQq/ejW9uzAM/GKKc1EG39xmLR13qqzVZv0bL0na9aBOHqybxLY//vGPZ79u5Mwv3PeXHuMYU7uGSSDrrRlL+PjBIHqz7pd3V3bv3r30fJnJ0k9/yqd3ZsIbNszsF1F47623Fv/tJz/xp0RtWCB+8v/+6lfhJeX/57/+1+Lv/u7viq937QrxJ05MFP/5n/9Z/K/f/z688xLS85W9888P550O4CZhvlG3rqtrWOfGGknWfVEOe9YXjmOt12JF6zO1JtKZn7jvLx3GOaZ2idbxao1uLlrbq43wkoP2/W//bWbjeLGFnW5osvM8Cf9n7/q09f/8P6d7t4TT/19v+1//5b9MP37dddNf7tnTn97plHn9ToLjOI7jOEOipRn6ZXWxhZ1u6Lpd5jrsdIbfJDiO4ziO4ziO08eSfnHZcRzHcRzHcZxj8ZsEx3Ecx3Ecx3H68JsEx3Ecx3Ecx3H68JuElvApyeOOOy589jMHvvdLevaO4ziO4ziOMx9ZFDcJTNTnatL99ttvFxMTE5X/Udj/R4DjOI7jOI6z0FgUNwmPP/54eTR++JfgDz30UBnqhxuEQ4cOlaEZ+McvfFDK/wGM4ziO4ziOM19Z8DcJTMR37txZhsYPTxBS/wGUm4fcJUiO4ziO4ziOM5/o5CaBpT4XXnhhWGu/atWqMDn++uuvy7NpOE860pOPf6mtpTlat8/2k5/8JMRBHPf6668XmzZtCsdr164N5+yyI/6lP3KJZ8+/6ReUz3n0Jh5ZSvvAAw+ENMhSHGXaOnETwL/65xwbcogDlj9dfvnlxbffflvce++94TxlEC+d4uVRsbzYhhyjl+xFeejsOI7jOI7jOF3T+iaBieq1115b7NixIyyjefXVV8NkP55Uxzz44IPF/v37iw8++KA4fPhwsWbNmjDhJw9LcYhbvXp1mXqGOO7qq68uJicnwzF7u4yHCfUzzzwTyiD+n/7pn8KEXb/uHzlyJOwp/8CBA8WyZcuKzz//vNi1a1fx6KOPhnSffPJJiEP2W2+9VezduzfkgRtuuCHs0engwYPhhuC2224LcaeffnrxzTffhOPt27eH8u+5557ihx9+COWS3sINAjcVbKTdt29feDqCjQT2pIzPPvsslMlNwjXXXOPvPDiO4ziO4zid0/om4Ze//GV4cVeTc/bbtm0Lk287qY5hEs2NARNqluvccsstIf7TTz8Ne+L4xd2SikvBL/ZM9P/5n/85yIc77rij2LhxY5h8Mykn/pxzzgnnrrjiiln9SQennXba7LHOvfzyy2EP6M+kHp2QhWzqXMd5551XXHLJJWXoKNiLpwgqj5uflStXzt5ocCOAbN59oDw2jrlh0k2P4ziO4ziO43RFq5sElszwq/i5555bxsywfv36sLeT6hgmvmxM6PnV/+abby7PtEc3J2eddVbYC92I8FSgLUzgmdRjAybq3JQMy549e8JNiQX5ekrw3HPPhRsCbg4Ex9yY8HQhXrrkOI7jOI7jOG3o5J0ELd0RdjJbhdbY8zTh1FNPLZ5//vnyTHewvMfCkqKu4OaGJUB33313cdlll4VlRaNETxUsy5cvL48cx3Ecx3Ecpzs6uUmIP/MpVqxYUR4dy0033RTeF2CNPb/IdzmBF19++WV51E/byTU3OFoq9f7774elQm358MMPy6Oj2PcNeGJQ9Y7H8ccfXx45juM4juM4Tnta3SSwVp+186zztxNYHV933XVhn4IlPxs2bGh86hBPjKsmypZ169aF/ZNPPhn24vvvvw/7K6+8MuyHhfcmmLTfeOONZUw70JclR3bZEPX86KOPwvH1118f9s8++2zYC57gsAyJdx0cx3Ecx3EcpytaP0ng/wQwYeZLPExs2Tjml/a6X9i5uXjppZdCepbuvPDCCyGeLwrxmVDgl3pe2CXMV5T0adL33nsvTKjJq1/R33333RAmnkkzL1NzIyJZlLF169Zi8+bNsy8z/+1vfwt7u1xKnzG1v+wjV3tbpnSmTL6QBOipT5NSRxsP1M/uYcuWLWHPV6KoI59LZSnTP/zDP4R43vHAno899tjsjQR7bs7sjRBx+tyq4ziO4ziO4wzNdAfs27dvevXq1dOI602Mp3sT8enDhw+XZ9Ps3r07pGXbtWvX9MGDB8PxunXrZvMS15scB7mKZ9+7AZienJwMaYAwaSjXsn379iCTc+hHOYJzxGtDbhzHRjlxHFAWx8glDTYgbHWgjsRJ91g+YWFtSJ2npqbKMzOQX/VUGmsDICx7Oo7jOI7jOM6wHMef3qTTcRzHcRzHcRwn0MmLy47jOI7jOI7jLB78JsFxHMdxHMdxnD78JsFxHMdxHMdxnD78JsFxHMdxHMdxnD78JsFxHMdxHMdxnD78JsFxHMdxHMdxnD78JsFxHMdxHMdxnD78JmERwX+L5j82r1q1avY/MzdBnjvvvDPkcQaH/+TNf/U+44wzlvR/usYO1B875Ppel/AfzfFj/uP4qBmkruiFTvqP647jOEsVxsGf//znxU9+8pMyprs5iF+LR0OrmwQamgtgvNHYOAKNv9B58cUXy6P5z/HHHx/23377bdjn8MMPPxTvv//+QHmcfk455ZTi4MGDZWhpM1d2OOuss4IfjwP6zBdffDHyui6ksWepkLrepbYub5QXux8wuZuLHxbmmpTfaGOiyxxqsbX9smXLig8++KAMHeWbb77pZA7i1+LuaXWT8Oabb/Y1CP+8me2pp54q9u/fX1x++eUL+kaBDnro0KEyNP85/fTTi+XLl5ehPC699NLiqquuKkPOoGBzBr6lDna45JJLytD4ofwTTjihDI2W8847r/jZz35Whuq5+uqrw5jIfhAW2tizVFizZk245ulat27duhCv8OHDh4uJiYkQ1xVbtmwpjxYnjz/+eHm0tMBfdu/eHY7xI+tDTz75ZPHdd98VmzZtKi688MLi66+/DukWOsw3uAGyMJ5ecMEFZWh4/Fo8GlovN6JhYrgDvu+++8Kd4bZt28rYhYUegS0FBr2xcJylzigvRktp7FlI8Gv3jh07ktc8wY3qQw89VHz//fdlTDvwg8X8yyg3wzt37ixDS48rr7yyPDoKPsSPCvwIyw0nv7zfdNNN5VnHGS8jeydBvyru2bMn7EHreHmcxpIk1s8LHjlqPT13zSxl4liPIevy1kE+0pOPO3L7ZEPlSCbHlIcuPAXhJufee+8N5+0aN9IgS/kYyJvu9KvKstTpWoXVBfu89NJL5ZmjUDY6koaNm7iUvlZHZMX61cmx7QeqC1vOI1PqijzJtjZFD8LoRjp0Y9N54qxtY9+o850mv0tBHulK2ocffrg804/WR5KOvfUhUHmSw3FduTBMXVgHKl2QTxryEyeafM/aON6a2pcym/qLdGKjHKtbFda+yP/888/LM0dp8o0U6CY7SnbdOwXSnfRWb+RYu1uQJ93Zy4ZNY4+tM/sufMpi21j5KCOOY68+SZkaF9Ap9p1B7Qmct31e/qOwUNmSbW0JVk/ycZ6NfITtmEMZse4WfgVla0KTPFHV1qLK94nXBFrnBXqSljjqTlrRVGerC3WuQvK12bZXHGmqaGp3jvmlHNauXTtbBvZBLn7HMflpJ9HUB2LoU7YfSie2OC86ydfY7DWOfSyHNGovZEmvuE2qaHr6yQ3n6tWri7feemvW/oAu6nOxntDUznW6trmO6LzKbWqbOuraQnR1La7zuSY9ZCPpwLFtqwXPdAcgJha1e/fuELdu3bq+8OTkZAhv3749hPft2xfCU1NT0xs3bgxxnCN+zZo1Yd+Ut4reXXjYDh8+PH3w4MEgb+XKlSEMlLd58+ZwrPMqA6SLhTKRoXTsCZNXclM0ldWkawpsho67du0KYelibUV+ZMVp1C4ge6Kf7E0aNnSBJjm2/ZCDDNL0BriQrg7ykkay0QE52AMkh/LRlXQcoxt5Oaf6co68arc2fpcCO1Be3Fa2TMAG0hGkl+oETT4RM2xdKFtpKZ942k36EhfXh/YgDMQRlu5qr7hd0cvqB5RFOsWxJ0wZko9+6EOYjXKsLVOQx8qVfdlEk29UgW6yh/QhH/YXyCQOexMvWxNn20N2lw5AetJiVyvfpiEc6zkKn0ohuTZfHMdefZLyqTMbadDBojR19rSQBvnyE9ITli0pV3COsGwp/+cYrJ7kpx4ck5540pNWYc4NAn5LeVU0tTX61Pm+6mxp8uu6OmNT+SfpCFeBPrKn8gjC0rsKyqQ+tm7ISvUj1YV01o/QHX+mLMjpAzHYi3ySGfdX6YNMwtaOhG1/UntQnmxAHDKIVz2ULrZbCtKpfimku+qIjdCduoPa0cqoa+cmXbGX2p1zshXlVdUfctuGPHF9JVc0tQVgB/wc+RyTR22qfNCkV53P5ehBHoWlg2y7GKge3QYAo7FhbJBTEifHw/DWUUlrjQ9yFDWmyMkbo4HUIkdAHuAEdsCiXNu4qTKQaR0E5HSSm6KurBxdU6iDWNCNfJJN/qo0lAuyu4X8xCnvIHLkB5CSHUMni2XT3sQL7BfbCEhj7Qp0UvkLeg/rdynQs6qtJBM5hOX7Al2Jl72a/C+mTV3UnrGtcnwvJVNxVl+VYeOQ3dRfkBW3f6ynRfZNtTvxosk3UpAeGdaHOaYeNl+qrqQjjbVnKh1prC3VjtbfCdt2VZ279qkUKZ1TcZSFPS3EsYlce6ZIyZffqY7U39pNvhvrGfs4UL58EDSeDQKy6/I0tXWT76u+FvLaNBD7dVWdkWX1ieXEyKdjHQnHvmjJbfeUXwFxcZm5fSCFyrF5VTfZifyxHOxq/VlyYrvljM1VkM6WESMfUBrKim0TX4s5rmrnHF1VppUBVfUfpG2oR1zf2M9z2gIbxD6u/q+6DKIX4diuOXpwbO1BmbE/L2Q6XW6kRy48Ouw1XtFrmNnHrnfccUd4g51HMzz6ufjii0N8injN5yB5BY/neo01+4iI7Zprrgnn9Ej5+uuvD4/seMSEbMqte5zMIyRknnvuuWXMDOvXrw/7l19+OexT1JWVo2sM8eS57LLLypgZ4vcL0IlH1lb2o48+Gs59+umnYZ8C3WhDHufBIHJSj1DrHr+xJO20004rQzPQ3vFjeR4TxpCXR9ZWL9ZwslwD3dv4XQp0il/0jten7927N+z54o7llltuCXvaGwb1vy7qcvLJJ5dHM+T4nnzqq6++CnvLSSedVB4dS25/YWkidsUW8jc96k3x9ttvh/1FF10U9iL2uybfSPHcc88Fv7eyOO5dVEK+Oj8mHXpT5yrIjxzKkE4nnnhiOJf66ocYlU+1JdXXpQu0sSfE8nsX5LDXS934DRvtyfKHm2++OcTHpMYO+hJ9Ch2wmcazrshp60F9H3L9OlVn7M74RZnQVBb25/1Cxn7Jxq/4kljdy/ht2x3ia0JuH6jDjtXogy3UX3mBtjcnCnvsw3ymqk/G4+gwc5RhybkW17XzKK4jXbSNJactiO/qWixin8vRY9xj7rjp9CaBgQODsqUGERzyzDPPDAM8Xz8ahGHyckGRPnbj60tAZ3n11VeLAwcOBNk0cg5Hjhwpj2aIL2Qpmspq0jWGzzBC3FlT9O6qk7KbLhDxRWZYOaOmd9ee1EsDXBu/i+ECFw8kVaiNRDyADeN/XdZFNPkek/o1a9YUv/vd78IgyMa7L+SruohYmvoLA6oGXiYWDLiUUYXk5ZTd5BspuIDG5L7cn+sbKZ1S71TEjMKnRk0be8ZwsbbgJ9wc4J+nnnpq8fzzz5dnmmHSy0X/7rvvDj+2ML6Ngrq2HtT3xTB+DUx0WLfNF5MY31lv3cStt95arFy5cvYrRM8++2xx2223heM6umx3S1MfGIT4qzrcvGCXV155JdhIN6U5jGJsBo13P/7xj8Memq7FTe08Kl27bJumtujyWlxHkx7zccztkpG9uByD4e6///7inXfeKR555JGsC7wYNi93iakB13YYBmm+IsDF5bHHHut7gacKOlaKFStWlEdp6srK0TXFJ598Uh5VU/Uyc9OvOaSxdRpWTg4ffvhheXQUBroc3njjjfLoKLJbG7+rIqVrii+//LI86sdeKAfxv1HUBZp8j0n9M888Ez7JxyDIr6G8yPWv//qv4XwTOf2FunBTMjU1FX5gYPLWRNVTNkudb1TBxSdlD9D/IqmCCzoTqiZSOjTpBV371DhoY8+YWA5ffWGS89lnn4WLde7FHzncWOB3+Nsof+hoauthfH8YvxbUlZuU22+/PTw1bMpH/7dPE55++unZp4F1dNnulpw+kIv9AYPrGKsgmFxz7aEf5TKqsRn76eMvP/3pT8Mecq7FVe08Kl2hq7bJbYsur8UpcvWYb2Nul4ztJoG7LJYHxL8E5TBMXt3tPfjgg2Ev7IBIZxE89WAgrHvkjCMwAWCwtIOfjq+77rqwT1FXVo6uMVrmUbfECXgUxi9V8YT7iSeeKM4+++wydCxcDMinOg0rJwfqz0BoBzhs+tFHH5WhanisSnvEE8bXXnst7Nv4XQp+7WNSYts/Ru3Jt64t+iyiPns3qP91XRfI8T3qyhd3GAT5dZBfrJjUND1By+0v/KqlOOrGZybxNesPFn4xhqZH2E2+kQI/B34ttTCZoO2bbI8f1004ZZOtW7f22YT+9vHHH5ehYxmVT9VhP+M57Cc929ozRkvNNEnFBzZs2JD1NNfCsgwmsTfeeGMZ0z05bT2o78Mwfi2sf9xzzz3Br2KfSqGnCSzvYGuyd9ftDrl9YBDorxPl/7V49913w36YG8Zhx2brFykYl1kORZvjT5BzLa5r51FeR7pqm5y26PJaXEWOHl2OufOS3gW/FT0HDi92sHFcRc/Jw8syvADCizK8PEMeXhTRSyakIc6+TAY5eVNIXs+ZQjrS95ymPDvzwgnxyGQjvT1PmQrrxRe9kIUs5eOYl1nqaCqrSdcUelnJ6kIe4rAR7UEcMomTDtoLjpWH9OSjPsgVOXJUB/vSjnSMXxyykJ402Jv0yKR8vSxky1acIEw8G/qSl7TSAZ2G9bsUejEK/eTvth2kH8dWpmxKWiH7oRdb7BMxbeqitJyPUZ4q31P7oD/xbGon2+dVhi07p78gBx0kizD1JG0V5LdlYRP5CPqSt8k3UpAP2ZSvdOwJWx+WTZCL3rZeVm+ls2XKTsjEjmzoZfNxTm2gcpFPPtV5UJ8iPeWw2XaL4RzlIBu9kUcZxLGX/yEnbie1i+LY59gzBXrH9aVMW1/kyOactzZik57EqW+CfIP0gE4qD72adAPZKZZtaWrrJt9XfvSjDNJJdzb0j/26qs6AbL1kKXuSPwfSpWSmQIecdlddkE0e1ZM4ayeR0wdSIJd8pI1trbBsLfuwRwfycI50ShOPo4SRhe7orHRqnyo0PqqPCmwkf0S2tQPHal/SIF97UdfOObqShjjOWarqDzltI93jtlV58i2VU9cW2Ig0tk0pizh0kawcvap8LkcP2Z58bNRF7cl51Vc6LjRa3STIie0m48TQCBiKNDQOxsTQxHEulmUdvilvFaQjPR2CvDgLcYKw5LLRuPY8DkE8utl4nFP5kC2d6mgqi+M6XavATjYPMrANuis/zqlOSFprW1DZ0o+9OpSlTk6q/eraNMbaFP1tu1oZbLroCMLk4Rwy4ouQ5Kqdcv2uCqsr+bEVYfLagYCw2obzsU2bfCJm2Lqwt/Gks6j9q3xP5cjGdiMP5+vKaOov2MXK5ti2fwryo6dkUj5lYkPb/nW+UYWVLX1inwOrd6peoMlJnF8+wzn0jutbNfa08Sl8k7ycl29UgVzykx5d0F/lIU/ytamecRzk2jOGulMme/KpnS3oRjwbuqmOspvK1GbLpb2Iowzi8Q3CxDcR+zsbZaaoa2vOyYfYOLbnqQNxageBvsqHbOvXkqXN1lmyiGefU1eBXuTPJbfdlQZdOK/02mKa+kAKyaU/KG/cFugrX2OPL6GTbB+3uW1v5KiNyaN2I86WYbGy4o182CVlL6i7FkNdOzfpKhtok+y6+oumtrH52ahfqrymthD22kI69TVkkEfU6VXnczl6dDXmzleO40+vYo7jOElY1vCnP/0prPm2sGyiN2AWd9111+yjcKcfrWntXYjmjY3QiXeZ4vacb2htPsvcnLmHpVGs4R5mOc5cMx/7obN0WChjboqxvZPgOM7Cg/WevI9wzjnnlDFH4YW31atX134G1Zmh7Xs7XfLCCy9kvXjqGPga0dRUGejB8WILN3xdi48XLMQbBMeZaxbymOtPEhzHqYSnBWvWrAk3A7/+9a/DZJfP7vLiJy918RKxTxz64csWvBD5b//2b+EJDE9iqj5lPE5oS1785WW9Lr9oMgq4OeVLWvgdTxIGfTG5c5hE83UZfVVmw4aZ/WIK88Wk88+fCfegDfh6lL5Cxo8FC/GXUODl0nvvvbfYvXu3j1fO2FhIY24VfpPgOE4tTHJZasDXNPgizMryKye+zCgNduKfXcHExETx0EMPzf0kdwGhpSGWebFMpKdXJ5NxmI/hyL7cJPCPtvii2bZt2xbsDQLL1uyX0NatW+dL2BwnE79JcBzHcZwctERHv7gvtrDjOI7BbxIcx3Ecx3Ecx+nDX1x2HMdxHMdxHKcPv0lwHMdxHMdxHKcPv0lwHMdxHMdxHKePVjcJfP2AL3lceOGF4RNjiwW+5nLnnXcWq1atKmNGw7jKGRevv/56qM9xxx1XxjRDHj5Jp3+cNGrOOOOM4K/47kIDnfGVxdTXnPGS6m98pg+fom/wZaFRgw6MEewXO8OMiQsdXdO4vo2KpWjX+QT25zqK/Rk3mAd2geaUjE/jmhOMA/oCn8amX4xjjO2S1k8Sli1bVnzwwQdlaPHAZ9/43OOoGVc54+Css84q3n///TLUDAMC/sM35ccBHZXPd86L7647TgcMenGuG68PHjxYHi1+uprUNDHomLgY2L9/f/HOO+8U5513XhlzlK7svhjtOmqf5IcAJvV2G2Yizg3CL3/5y3AdZczgJoEbtq646KKL+j5Z2zXj6vuW448/PuwX4lyv1U0CE62rr766DC0eGNwuuOCCMjQ6xlXOuOCfhQwy+SYt3z7nn3WNAwYe/mvoQr1BQG9uKu+5554yxlnKcLE7dOhQGcqD/sZF3UK/veSSS8rQ6OGawUf15uraMYzdhmXQMXGhwwTy4YcfTt4g8MTqueeeK0PtWGx2HYdPct1gUs8/KIR9+/YN9f8innzyyTCGYH/aARlcl7pAMkfJli1byqPxQZ2WL19ehhYW/k6CM+eMa7BnkExdvBxnoaGlis5guN1GCzd+qf9ozFPjjRs3liHHMk6fZLKqHwkW4w+8TWDnpfTEtAtGdpPArwYMFnqsxTGdwcLdM2u0OM/6tpyOYtfC2fXZ9lGa4lj7FccBeljdkBfrVgVyrM42HwMhj+84RxqOB1l/ZvW1jwFTcUB52EznqRNxFuzFoKA0dqONgDxaL0c89SJfDvwnXskn3+eff16eOQo2snahrBSkkyzSSz9RJwfbYQvOSw4bdZOdVD/i7SNHm9falHS2fVNYndljA4uVx2bbqE7nGOLQmbTyZeKwP2USZ9tatqEMxal+gG3VdqRR+7PZvtKkoy2TvbUrIFd1RwZlWpCP/pynbMqK698kw4I+Vl/JVtjSNEYN0j6clw05L7mkj/sS9pXNSK+2AnSSHNB4wybbkubyyy8Pj67vvffeIEdtRlmqs+qU0jcH6mTtg9zYhilIg83IE9cPXazfWZp8iby0BzJJY9tUOrIJ6aC4Ye0W62z1tHUTSst5ZKbGxCbfi6FcpaVeIo4bVFcL9kYP2VX2Y49cdFYcMmN91T7SydqQfCxz42muZIpcW4zCrtBFvdVnpRt2t5BHurMnDSA75ZN1Yw9hW0dkWZ2oD/mQwzF6kb4KZOb4DPKIow3btGNMbL8qXa1e7O34YOtMmWov9sgHyti5c2c4lo7QZC/rd+xJlwO2pG2U7yX9l/MI5FnfybHZWOGfqbUFMdu3by9D09O9O7XplStXTu/atWs2vGbNmhA3NTUV4tgT5hyQdt26deG4it27d4c8k5OTIbx58+ZQNvGAzFiXVNzq1aunN27cOH348OFQPmH0s5A+Ns/ExETYlE91IgzIRCfQeelaRVwOstDH2qIqDvmyMeWgi02zb9++PvuwJ4yeFuSoXmwc23xVULZtD8Lks/XB/ugep7Htgc6kwXakk01smzTJIZ7z5CGO8xzTDtSHcxxTP+pPXo7jvKTFbrJdbKsY6k9aQA5h0dRGdTrHECedVGfiZAdkIg8UR11s2cQpjD3Vf6gjbY18yidObV+nI2l0bP3G6oFenNN56Q6UZ/2HPWFkqm2aZFg4b2WQljDp0Yt6CHQmnexBmDzEYRsgb277kBY9KQe7UjfsgzzilIc4ayPpJh+ibPknckgvPZBlIY21BWXYOPJJjgU92SxKK72AMtEFuyJbtqijqZ9yXnW2ZTX5EnGcJ176YA/KErKbJRVn9YEmu3FeOsv/SCPZ8hegvugV159NSPc630tBvamvbbs4bhBdLchRvZFHewDpiUM+smR70iBTEE8dVCdkUR+rK8c2DLm2GJVd29YbrF+yyXclC9BBfVy2sZCecgRpKAvZxFMnjq0OVifOAXGUgzzSkA8/jtuB8wIZlEFcjs+0accUlKO6WfvZMurGh7jOnCNedZJOoDjRZC+OVS5wnrSUUYf8R2WrzYnjWCCHDT2szQjPF/pHzyGh4hhfUGkqa5HRaAjAUDi3xXaqFBjPpokbAmJdII6zzgw4AmkssTNRVqyvnEuycCyrH41uHSJFXA6kOmEcR5mxo6oe6pSkj3UmzpaHvoStU3JMPuxUBXUjX9xmtLuVT3un0ljZcd1AdlHeXDlxfYG88jtQu9m2IW/ssym9YpCjAQSsjsO2UR3ktb5MHeI4qIqz9VFe7CFoe2xqdarSkXS27uRFnmxN+XH9rX2QiT0s2AwZ6lNNMlKgb9yWyEGu8uaMUTBI+6gM25dkY9WBelmflc1sW6XkKM4S55P+8i2gjrbNgXAcJz1tn0BPtQOkxsmYnH5aVVadL6FH3A6cs3JTNurKbtLZ9pW4HrljYq7vpUi1XRyXo2sVpGmSD4RtnWifuJ+mxrpYTo4txmFX0qTqmIqzZaITYdtXOcZXrW+Spuo6AZy3PgmUVTXuNvVLwnF7iLgOMIjPpOwyrO1lv1Tft2U0jQ9AOL6eEGftmhoPgLjYXvI7axOgTOLl1ylot1ie2kn2JH/cvpRFGtu+c81IlhvxSEeP0wRrwXtONPslm7PPPjvseczDYxmoeyRGGh7JnXzyyWXMjMxeHYo77rijjMmDl2zIo0d6jz76aHmmGh6v9Zxm9jEV2zXXXBPO6fHQ9ddfH+Tx+IhHXKz/40XBUfDyyy8HO1t9VI9PP/007FesWJFcf9dzzPKoCC+SEbbvBXDc6wjB3mqbmLfffjvs+RKBJX6/gPbetGlTn548dkY2jyerWL9+fdjrZa5cOTzWi+ERIhvpeOR48803l2f6Sb0bQbvXgZ2uuuqqIB+sD+e0EaR0Hid88UZgA+oT+02so/ojvqO6nXjiieGcvp7Dy7DYhT6hNpJ9yE8Z5557bggLtTu2gzoZdcRt2bvghL38KWeMEoO2jy2b/t+7wM3qzrjD+KNH/BdffHGIT5Hyx6r+CBoP2WMzxtaqLxnlMMw4OUx/z/El/CFuB+rYxQuTg9jN9hXx7rvvhn3umDiI77WhTteuyR3rYnJsMd/sasm9ftZdJ+pIjT25/fK0004rj/IZ1meGtf0rr7wS7GdfVo7bNWd8EKmXgw8cOFAe1RPba+/evWHPl7Qst9xyS9hXzQ2YD3Jtu+yyy8qYGWLdcuaU84GRvZOQGrzjjvTnP/+5uOKKK4prr702DMzjMgwXK8q7++67Q0P27i7LM/Uw0eBiEm9PPfVUOE/HffXVV4NTnnnmmdlr14YFvVP6aAC6//77wwRFemDf9957r7j99ttDWKTaqulN/CNHjoR9zpcIenfOST3r8qbODSMHtOaRAevUU08tnn/++fJMexj0+ZoHX0xgQI/Xoja10XxkkC9upeqmtcJMkDWIM8BzQdP6UCE/EvEFIkdGDlywYprGqK6IJzfcHDA+cMPC5yK7hAsqfsjFF5/UzdEwDDtODttPU3lS685HQRd2G2RMHJfvjZNhx7omW8x3u+ZcP5uuE4MwbL8cNcPY/rvvvkveCKVI+dY4xocffvihPJohdSNlUXr7g3YVTXPK+cDIbhJSv2ADk1aBA/HFmc8++yz86s0LPFW/NolPPvmkPDqK7s5zYILBZJEBh+8sDzJZ484vNUGxHZ5JDZ8EYyL62GOP9b340zWpF2HQT79eMDHatm1b8eGHH4a7VOx73333HfMJTe7SqyZe+r5vFTk3dm+88UZ5dJSmQVL62MF2GDlw0003hckYfsaNXFMnHxR8iMGKmy9+CbA6NbXRfCSeuNeRsr+No58x4E1NTYX+xsXNUvXZP8YD0SQjh5R/54xRXWDL5oadm3e+I//II49kTXxywafWrl0bJiOMiW2eYqLzsOPksP20yZf4gSOG60XbvtSl3SBnTByX742TYce6XFvMV7vmXj/rrhO5tOmXo2ZY26f6dYqm8WFUfPnll+VRP00/pKbmqjE5c8q5ZiQ3CTxa49e/eHDAGHJqzuk8NwsMznQ2PeKJYXkSzsYF1hqVgSOe1Nhw3AA8+qScG2+8sYzJQ78sPfjgg2EvbGPaJwd8XowJec4j+hSx3nGYpU3YOL5BeuKJJ2aXcmFfHgOThrtT7vTjGwTkwLPPPhv2Ahvyy23qF1jgF3nIWY7Do8h4gH/ttdfKozR6xHzllVeG/bByAB03bNgwkl+UbJtjW/yE70hDThvNR3g8PDExUYbSMJGiP27durXPN5m0ffzxx+GYX8x1Dj/asWPH7Lig/LSpza/j6667LuzrZAyC/EnLmXLGqC7AHpTzi1/8IoR5ysiThap+1QYtC+hC/2HHyWH6aY4v8cQZfeKns48//vgxk3orI+eGtyu7DTImtvE9Wz+Iw3PBsGNdji3GZddhyL1+1l0nBmHYftklKX8b1vbc7FCfOJ8lZ3wYBZrzxe30/fffh73mJjEnnXRS2GvJbBU5c8p5QW/y2IrUyynE9Ro1vMjSu7sMcbyIQZzCvLzBeb3EwR45CqfYXr500ut84ZgXQXqG7ntpiHOUwwsgvBSjPKRDtvTVSyXEcY448uglFepDHOmF4lQ+MsgrOCYefdhIb8+nSJWDXOKwGfpQT2xFvdBX8tGDdCpXe2Hrro045Mpm7K1sYC8b1kE+6QnUQTpJT9mbjXpRPmlUFqCXLU/l25e7muRYe1hbArLQlTT4n7WvbEFe0nEsVD8bF2P1RDZy1AZWJ9le+/h8rHMK2cD2Nb34ZV/YSqWjLOJkB8B2ilO/RDfqpHCdjtiOeNJTPhtpJR9Z6BDL1nnpTnsQx8Yx+ogmGSmwMXLll2qX2EbIsXUnfW7dU6BbXB90t/UhTBnI47xsKJ9WGuJsH0F34myfRA51BeIlS/7IHv0pn3PUS3Wy7QTKyx7kQ+gF6CK7UlbV2KB8ykudKMvWRX5n41Q+dUr5EnvOWbnoo7qC9SdkI0O25JzadRi7KY3aCMhLnPUr8hBn7Ygs4tCJehCHDnW+VwV1k3zKp2zkkFfyc3WNoWzSIE8gD/1tW4DqKX2Vjjhsq/axOsj3SSv/ybWFyhuFXTnXpt7EUYb8mT1h1REIy7/Ii1xrG85bn1T5lEW9BMfE1fVLpYl1ByvX6pfrM1Wy29ieNGyyn8pFluKkH+nQh83qIL1kQ+Cc5AjJQS55KL/OXra/AemRV9ePgPPkIz8y2dROyJJNND5RNrYnva3DfKDVTQKGpoJ2ExheRmHDGNZZrHOzYSR1ojowJI4imXGjIlfn1ZByLJWvBqRM0sedwerFpo5DWaSRfDmAIIxM5UvpZ6kqR45IHGnkYMhHX0E6ORk62Q4OtAH6WJ20IU8gH9k6ZztnHTafykcuOtkBCFmqD7rYc4CeyJFdq8qvk0Oc3Wx+/ArZbOqgHMu2qbypuBToI73Zy4dEXRtZ+WxVZUCsE7ojqymOLVUfKxP9VAdk0B7C5mGLdcSe8q84L+fUXmwc2/NAGyq/7Gf7TI6MGPRAJnvJjfsGIEdp2LCDxghQvLa69gHZ3vYljm19KFP1VV2pE3GxPmzITMUBfk2Y88hhU1r21EXjlcZWK4eNOsU+Q14gL2F0I108TlZBWrUZeeP+znnOxfas8yWw9iFd6nqhviZ7yn427aB2S9mnymbIyhkT47aOfa8K0si25JfulFnVllW6WtQmdhskDtBN9k/1OepMvNpG5NhiVHbtot5WNzbaR+cEcejNefZxH4p9UrK0WXl1/TKlp4j9gI3ycn0mlZ84MaxP23zUifpgI2xq/aRqfEjVucoO2FZtgc3r7CWoo9qO8tEjB5uPutA+lE256AHsNdYonc7NF47jT085ZxHCo19enokfx7MU4IYbbhjbS4HO/IRHvKzF7g2Ux/jIQkbvLPBu0DhhSQH/EMmH1HoWq985juMsNkb24rIzt3Ah5lOEqYsw6yR7d7RlyHEcZ/zM5/dynCUCP5RNTZWBHhx7uAz06DrsLDj8ScIihZdf+ILCxo0bw3d99a3fr776qnjhhRfCV35G8fKks3DQL9+7d+8e2Yt944YX2/i86OrVq8OThFF//tDCEwxerjx48GCnXy1aDPCVN16I/7d/+7fiT3/6U3iaOZ8+8+csUZjA/vSnfJppJrxhw8zewzP7LsP+1HBB4jcJixhuFP7lX/5l9p+ZMHHiH7r85je/8UnMEkcTWrFu3bqxL8/pGi1jsYxrSQufGLZs3779mC+JLWVY+siTTZiYmCgeeuihsd7AOU4lfFmny8kweHhmb8N8Gvn882fCzoLBbxIcx3Ecx1m6aEmMJrEentl3Gf77v+dfSM+EnQWD3yQ4juM4juM4jtOHv7jsOI7jOI7jOE4ffpPgOI7jOI7jOE4ffpPgOI7jOI7jOE4fi+ImgS+16B8o5cKXf/js46D5mkDuhRdeGL52csYZZ4Svesw3+PwgdUfHVatWhc8Tznew65133tl5ezmO4ziO4zjHsmSfJCxbtqz44IMPylA3MJH95S9/GT4lybfSuUlgYjuf+Otf/1pcfvnlxf33318cPnw4fI7w0UcfDTcO8xnaa//+/WXIcRzHcRzHGSVL+utG+lW6q+/Ddy1vFOgfaC3EZl8I9nUcx3Ecx1kM+DsJjuM4juM4juP00eomgTXt2gS/9sZxrMsnnl+xWdaiNOy//vrrMlU15GPpDnnYs6xH1K1Vr8tXBfqwRp+1+uTj/YKmfJRDWv6DLZvqJvhPsHpPAbnoa+vNedUB+6ArW51t/vCHP/TVDR3qoAzS8hQBOGYTTfVmmZLOkxZdOUYuEEcdJJd3Hqz+yJINUufBvivBFttJ2LKoO7o5juM4juM43dHqJoElKxs3bixDM7AUxMYxoWM9OZPnDz/8MExut2zZUmzfvj3E7d27t0yZhsngSy+9FNajs4aeSeE111wTJoaSnVqrXpevDia/3377bfHZZ5+FfExsyVf3AvI999wTbLFu3bqwcawlMUyOr7322mLHjh0h/tVXX529abITYPQkjE3+6Z/+qVi5cmVx5MiR8mw/TNafeeaZkAeZpGfyT52ruPTSS0Na7A4cs4mmev/www/hPQvSPPvss+Hdi9WrVxfff/990Jv85513XpA5OTkZdLvppptCXmyOrA0bNsye37NnT/HEE0+E88ANAu9KsJFm3759xc6dO4sHH3ywTDEDZeEzDz30UNDnm2++KR5//PHyrOM4juM4jtMJvQlZK3qTTmaaZWiGVBzhzZs3l6EZiCNtFVNTUyFNbzJYxkxP79q1K8RxTvQm5mETw+bbvXt3SNObJJcx0+G4Nxme7k3ay5hqYnlA3rje0oW9IB9pm6BO5O1NosuYGXo3ZsfUL0WqbXLrrbzWrkA9JiYmytAM1Fn6qD2sbmvWrOmzFfrHMiibeEF68llSNnccx3Ecx3HaMdZ3EpYvX14eHeXAgQPl0bHwqzqcfvrpYQ933HFH+KWZX62rGDbfc889F34dP+GEE8qYIhzzZIRf0LW0JhfS82v3ueeeW8bMsH79+rB/+eWXw17wtKMJPXk566yzwl7ccsstYa+6D8Kg9bZ2BerBr/5aJsTGF5Pg008/nX3CwF5PUeIvS/Fk4bTTTitDM/CUIH6CY3UU9omM4ziO4ziO0x5/cTmCiWlM6uZmEOJlQ6mJ7qCw/MfCsqs2tK339u3bw41AvPGOAXCjwU3QK6+8EpabrVu3LsR3QdefsnUcx3Ecx1nqLIibhNQ3/OveERDD5OOX86pfpo8//vjyaDAOHTpUHvWzYsWK8mhwvvzyy/Kon2FvaNrWm/c/YpDHzQHb2rVri4cffjjYn/cjUvDOSkxOOzuO4ziO4zjd0tlNgp1gVr1wOyiXXHJJ2OuLPIKXn88+++wydCzD5rv++uvDnhdzLdSH5Th1S5UgnmQzGeYFZJbi2HM6vu6668J+EPQL/JNPPhn2gheI4corrwz7KlJt07be5OfX/HhCz4vJ2Pvdd98NYT1VSEG9WHJklzZhp48++qgMOY7jOI7jOGNjuiV66ZWXTicnJ8MLq3qJlnO85KoXV+0LprwYS1z8ImoMeZSXF2cpx77gqhds2eyLt8PkY48+vDBLXYA94fhF4RjVMdbD2od4No5tvYkjH+nsy71VkJ+0evEZGyMvfkE6pqoc4nPqrXa1L1yDlSt7aw96URtbAHvSUybn0J/ySEOZ1IO8nJeeKoPzHAvSkE9xkqOyHcdxHMdxnMFpfZMAmjwyiWNSp0kik0FN2uyWiquCyZ8mxZpAWqrkDJoPncDmY2MSqnNVUF8ri81OUploaxItXexEN87bVB4gH1mkR3Y8cY9J2Zw2Ek31Jq3NG0/CmejLD9DLnke28rMnLTYgnW4cwNrJ3iCAytWWqg9xbMhtsofjOI7jOI5TzXH86U2wHMdxHMdxHMdxAv51o7Z8/nlRTE2VgR4cdxnuglHrON/CjuM4juM4Tiv8SUJbmJz+9Kd83mcmvGHDzL6LcMVXgAZmlDrCfAp3ZTPHcRzHcZwljN8kdAFf5OlyoguE33ijKM4/fybcllHpCPMp3KXNHMdxHMdxlih+k9AVWu6iCWoX4b//e/4N80y4C7rQCeZzuGubOY7jOI7jLEH8JsFxHMdxHMdxnD78xWXHcRzHcRzHcfrwmwTHcRzHcRzHcfrwmwTHcRzHcRzHcfpY0jcJr7/+evHzn/+8+MlPflLGjI6//vWvxXHHHVfceeedZUz3fP3118WLL74Y6jOKOlGHP/zhD8UZZ5xR/Pa3vy1jnWFo20Z/+ctfgu/iU6tWrSoeeOCB8szCpckm9B3qSt0XMow71IW2y2WcY1UX4wj6XnjhhaGOjBeMG7TdMOPGH//4xyCH/XxCdqKe4xgPx+kDc8Gor19tGHdbzze49lNv+vJ864ddQf0Yo2hrGKS/5frsQvSjVjcJGIXBO94wNMad7xfzZcuWFR988EEZGi1vv/12MTExUTz11FNlTD84ThdcdNFFxVtvvVWGuueUU04pDh48WIYWNl3ZfNwwYF9++eXF/fffXxw+fDj41aOPPrrgJ89N7N+/v3jnnXeK8847r4xZmJx11lnF+++/X4aa4cLCWLVnz54yZvS0GUe4uP7yl78s3nzzzTBWMLHAVxcj47yGjLOsuWLU1682LAX7V/HDDz8UX3zxxaK59jcxyjF3wfkRXzdqQ89p+DpS2MTu3bunV65cGbapqakydn6ybt26sI2a3kRuujehK0P9YK/t27eXofbQFqOq0+TkZJDfpb5zxerVq8ujhQW276DrLij27dsX+sligf45aBuuWbNmLGOVGHYcIc849ZxrxjkeLgXbDut342CcbT3fYAym/swBlgqjGnMXkh+1Xm50+umnl0dH4SnCfffdV3z77bfFtm3bytilDU8QTjjhhDJ0FH79HeUSJCcNNl8qv4osBq6++uowrixlUuOH4zjOOOAX8KWGj7kjfCfhkksuCXv7uEZr2rQkya6jZgkFYa0JYykTx1r/Vpe3Dq0zIx/rwAZdkoEurKfVGjIepUsP6YCOikNv8lhsHvZa5qJlI9xM3XvvveG8XaeGXMolnjowsY1lE5bdSFc1kcqRlQIdkal8Dz/8cHmmn0HsrLbGFuilvGyyjdYwIy/V1jn1IR/n2WgXZCp+586d4Vjnyav3LZCtvMqDjmpDyrM6NfluDP6AvqQT1Jsw5WA7jqW36oU84vAV4JhNkE56EI99KEtU6UmaNj7OMfVRuaRLLeWyNmRvdUvZBAapE6R8aRCwvdWR8iyqK+fZ6BvWFlXIt1SHzz//vDxzFNvu6C/bx1gdSY8NLLlyLLGdq8aROtnYnniWi7BJP2Rb/wbibH9L+RxQN5sO4rykJx9xVdTpjQz5HrLVvsgn3zBYX89tA6jrI1U0lWX9hX3s04P4S9yWHEs2duO8kC2RqbLjPkkaylOa2O84X9fWKoM45bc6WMivdGzUQaj+bPKzJqi/8nAMtgzFCevjVbawdbEb8YIyaEPisVts9xSct23McVxP2Zk07GP9LWoHZNl+h0z0Qb78jk365fga5cofqKftg031kA2VX3pA3XWaNDqXQnWRTDvmpq5dcR9BbtWYKpBJGspg49jWfc4onyi0AjGxKJYGELeufFSjsB5VackEj7CAZUkbN24McZwjnkc9WmZQl7cKlvhomQ/LopDHEii77Af9pGMK8u3atSuURzrpoDjkcwxaiqMwoDvlIodySW/rAoTjR0/UDV2Vjj1hZFn9sVlKvq1TrqwYzrEkJ7ZhrC/n4zSxnS20tfRkTx5Q+2/evHlWV7W1XbaWUx/aABsQZqMcq7PkCnRQHGkpg/zEtfHdGHRBDnZVGxFHWvIjh/JJo3KsP4HiYyiTvLbOpEN/qNIT+WzED+PjnKc+8kGVwbEgDWUpDeWQRuHYJmKQOuE3xEsWPjEo5FG7IcfKoHzZC3Q+1jmG9KQjvcLoyyaoBzrHaWgnQTmkUf+QH6CTyJGTAhva9pGdbd1yZZPH5kOm/FtpiZP+lMUxctWWlAXslU7lxnmRTXmSHdOkN/Gcl68hT/qiTxNWFjSNF1VQtm0D6kQ+wiK2bU5ZdT49qL+gi8qUzcmrdqMOgmNkqz5Kw7Fo8jviVSe1jcolPXnRGVQ3a58Y0iCLfDHENbURea1tsF9OHDZL1VN2B86zcV51Iw3yBPrZsUR1Vr4qsDPjBqAD6W3ZnCOOcyA/sO0p2yGL+qCLdLT+pb5E/ZEjuTm+Rnls1EV6Uj/Vra4espnNT17KBMqXD1Km9GePDJ2z4EvkrxpzKUd1lt8Rh0zSIZN6kt/6ZVxv6SpftnW37T8XHDvTGAIqzKaGxGhUjjg5D5UnTpA2NpQaAANZcvLGyCEtajg1BNBwdYMKUJ9UeVVxVh562/pId5xHpOTIMS3oTVrpr8E6Jd/qkCMrBZ2tyobSN9fOMeQnDbYVsnMqztonpz6ktwMcYC+h8i0qy6YDZA7ru1Wk/I78cb3iciClu3wB3QTH2MrqXqVnys5QFWd1x5etP6v91Y74SFym2ssOgLFNBq2TTZeyUQ6xntYX0Dn2KdorrocFWZyPfYoLgNUP+6XS2HqmfEb1VN4cOTGkj+uNLYmL2zlHdkpPQJ71JfmcrhGgOPkO1MXF+qTItS1xlqp6xMT1yhkvYobtIzllxXKtLYbxF0BmPFahly0L2WwiHhcoN9Yt5XdVbT1MfwT1GVsux3H7pyBf3I45cdgzVU/ZJ1VHxVk5Ode+FNjTykYXtQPH5Lf9ENCNeNlS+igfUA/qZucAlGXDosnXKCfOF88l6upBmjg/ZVpfTrW90DkL5VlfBKWzeqTSkSb2T8E5266ki/1PY4LtQ3NBp8uNeLzCY5K1a9cWvcYqeg0c1hLDHXfcUXzzzTfhMQ+Ppy6++OIQnyJ+z2GQvILH3T1HmH10w3bNNdeEc+N6hMNjLJYSYQvpcOKJJ4ZzdW+3kw/dzz333DJmhvXr14f9yy+/HPavvPJKkG3tFa+hy5WVgsdkV111VRmaIV6XOG4759aH5W7oz2NAPRpsetwnTj755PJohja+OyjLly8vj45y4MCB8qia5557LviCbX+OewNM8EHsZmmrpwU7s+lx7s0331yemUFfK7FlYtPe+FP7paJB6xT7PsRpmkA2Pk99wPoMvsUyNevrfFUKPv3007CP4atmwFdbLLGuLMvctGlTn2zGCOppH23HyO8PHToU9sPIyRlHYFgdm0itdX733XfLo3rivpoiV+9UneW7gzDs9QoG7SM5ZdX5dJs2jceq66+/Puy/+uqrsG8aF3L9TsRtPUx/hFtvvbXoTRyLxx9/vIwpir179xa//vWvy1C3MAZhT+oqPeN5wPHHHx/26seWU089Nexzr30paBuuhSx/wVew+aWXXhrOUXfgq2uWW265Jezr+gDthT+hl4WlOTFNvpYzl6irB/WPy8X/6B8x1ucGJR5z6zjttNPKo3rw43gZIP2+d+MQ7DaXdHqTwGf9GNTYONYNgmAQO/PMM4Nx+ZzhIAyTt3dnN6uP3ao+QzoqUjqk1iTHHDlypDyaIR5Av/vuu2RnTNEkKwWdN8fJ58LOTfVh4NAAzODMwMKgMixtfHdcpAbD1E1H12BXJgEMaFzQnn/++fJMe8ZdJy4qvHezZcuW0LfiNeHbt29P+nrVDaj8NOeiNDk5mZRdlzd1blA5g4wjw+g4Hxi33uMcL5rKavLprmxzzjnnlEczNI0Lg/hdFYP2R+BawYdVmJgxOUXPp59+ujZPF6T01DyACeHExETQQzdnL7zwQriZufLKK0NYDHMt52by1VdfDT844Sup9w34zKkl90Xl3IkwNPla01wipx6jZlRjRupal9O2o2ZkLy7H0Jh8K5vvnD/yyCMDGXrYvNyZpiaGOS+DdUmqvBwdGPRTrFixojwqivfee688qidHVooPP/ywPKpmLuycUx/8hMFlamoq3LTaF4sGoY3vjhNu6lLtAPqlahTcdNNNYXLy2WefhUG86uKSerLEBKaOuagTkwUu3rfffnv4Jcv68UsvvVQeHQX9mp5Y5DxVe+ONN8qjozT1IdnG3jgNIyd3HBlG9nxgnHq3GS8G7SO5ZdX5dFe2+f7778ujGXLGhVy/q2LY/mifJvC0j6ctoyZlUxv30EMPhRsqnvrwKzo3C7RrPFEc9lrOD2f87xJu1h577LFwA2f58ssvy6N+mn6U4aYFW+bQ5Gs5c4m6eqT8CTsO+kS5jtSY2wXx0xiRa9tRMbabBO78eOQ+zD9CGiYvd6Tw4IMPhr0YZvAbFpyZBt66dWuf4+O0H3/8cRk6FuXjlw6bT8fXXXdd2HNBYBJV1wFyZaXgF3gGeZsvZtx2zq0Pv64pDr/ZsWNHeLIwzGDRxndHQfxLEuhR/7PPPhv2grS04yh1Z2DfsGFD5a8e+tKZvsokaKOzzz67DB3LXNSJSZe45557gn8/+eSTIYw++FA8aXviiScq66GlAtioDiYp+HQ8SXzttdfKozRazqRfG4eRkzOOQK7suvFiLhjWtsMyzHgxbB/JKavOp7u0DXnol4zR0DQu5PpdFcP0R4FOeprAExZuGtpgx+TY/3PnAdxU3XXXXeFmjl/PmQjbdm1zLbc+wAoP6q6lWbqGyyeEbvriJxkxLIfJeQrT5Gs5c4m6elxxxRXBn2wa4EZQPtkF8ZjbBdgmNT+hbUf9hKuRnjO2onf3E16uYOO4ip4RwgskvIzByy562YYXNvQCB2mIi1/AycmbQvJ6A1dIR/qeI5ZnZ1664Rwbx1Xwggpy7AtDqZdKkEEcL6BInnRFf/KzxeVxTnrp5SGVic6kZeMY2QJ7k5dtsnx5Ry/6kE5xObJSWFlqW70YRn5sAE12TkEa8qi+IFvZ9pcOpBc59UEP9JLehLETaUFlYSPqQTrF2TYFwuQdxndTICP2O/lT7J/E2XopL/GyPxBPOusL7AlbG1fp2cbHKUNh7Ki2pQyVQ72IYy8fYROql7UJ+0HqpDQgP1U69uRr8kvSYAugLuijNpaOth7a10EdZA/ArpKDzsiVrdnkV6SxdaIsW3fZQvpCjpwY6okcNqWjDGSgu+JyZCsN8WpHULz1JexBnLWfyrV+qHSyHyjOyquiSW+1K/W3OqvdbFxMql4cI4tz5JWuKrsK2pd08inSswnpaW2bUxbnq3y6yTZVkN76C3vi5JvA+bpxIdfvqtpa9uDcIP1RkJ+yc3wIUm0N6IAcdMfOlC+d4jqQDt9ms+0InCeOfGxqD8kAjdOcIy8bx9irDtlFeagDccK2DdA2yLT9UG1MWs7bsjkG9moT7GXJ8TX04jzxnCed1bOuHoSxr5XPOTs+Sr7qadE5qzf51baAroStTNWZjWNQXW2cSPkRccjFltgW0JG4/7+9s3vVbIrj+HE/XmZyidRQFDVxohRFeRlKpDGRpAgHN8oFg1yMjFNeSoobJWEuKFJIiospSejUkAuOJuFKhD9gPJ919vf4PWvWfnnO83ae5/l+aj97r7XXy+/3W2uvvdbea69H7mkx1CABA6Js3FRgORgBgxGGiofhMAh+nMvTooBFW9w6CEf4WHFigcX82GJlFcgRwyBn7semCyhugsKW/MTPZdaFz7koHxVT8dBBukei7QhLHMKia8ynS1olYjzykS7YQJW3zc45klebLuboh7tke9GmD3JSRxSX42gPwuJH3Niwa4t5EU95KZ+udbdEDMtWqjtd/aKcyIXtdQ4ZY52uk7Oke+7HVlfHsR92ZMPu1AuOSUdlEmVTeUVK6cJWdCr5UV84psxi/BzVCcKW5EQ33Uw4Lxs2kesuGUkHuQRykb/kjOeAukY6ki+3hWhLp0Ssx4pDPuQXr5umtEt1Bj/iRD/yycN29cNdCtdGk9wxLbZcXvnllMJBW3tRx6DXCPl3yQu36kwp3Sbb1EFY7K68S/G6tAvIiDumQRjVu7ay3sr1GMmvwTrqyho4R974yba4OdY9Etr6Aeiscsg38hDIq3SUj+xZB2krDht653GwnfQgLPLmxPtqKW+lry3KDW11jbRIU3Igd0y/TY+8PsXOvPy1xbqSn5PcpEeekgfZc51iPMXN/UTTuSg7G7rF+jMtTuKnJ5Axxsw9vIruNcRjnX5lzLzDnPleJytNX5plWFGG79WmDdNKmCbFdyUR/DXdctZtbWaTiX2TYIwx04Qb7rFjxzxAMMakbxnuueeeyjVd+B6h9CEs305ccMEFm982DQyrJ62tVY4eHNtdOXrMmnsK+E2CMWbu4WO5L7/8Mq1xXfchpTGmHT6u5L+QVlZWJr6c+LDwITjr6V988cVpUQ4+Dt4O7QFvNNbX15cOHTqUlpLlQ1vs/Ouvvy4dPXr0hDcMnaGDuXcvy0BtuPft29jbvbGfJfcIP74eBA8SjDHGGNMK0/XyFZhmqQvBIOH+++9PUw4Z4AyyPO040XQjVgpisADIeNdddw2/ug0r5oyyswp2b+wn6Wb52D17NtwTxIMEY4wxxph5RVNW1Mm0e2M/S+4dO/gr6w33BPEgwRhjjDHGGNOHP1w2xhhjjDHG9OFBgjHGGGOMMaYPDxKMMcYYY4wxfczkIOGBBx5Y2rVrV1rWcBR89NFHaQWB6667rvKZDj///HNaPeKcc85Jy59tV7AXZdDFXoTJwz3++OOp/NB3UrCqheoLK0mQP7ZeRLA79qCezaINBr1eR91ebBXqHWuzs9zhJOxOOfOnV+g/LkZZlygfldU8QptOeWzntl3oXkSdNcYsLjM5SGB9488//3xkf4p0yimnLH399deVa/poCbTtCvaiDGYBbnJ0Jlkf33+i9T9nnnnmSOsZnYpJdH4oT+ofSwV2ZdTtxTBMsq359NNPG9eyZ8AyCkZVl/7999/077d//fVX5WOmBUuD0mbyJ18eKBizuMzcIIGniE8//fRIb/j8cQlPwqYNDfNll11WubYvg9iLP6thi/DHMH/++edE1qjmJvfEE0/0/WEOx+S/qH9zj93prI6S5557rjoaL5Qd9W95ebnyaWYc7cVWQfbrr7++co0fnswfPHiwcvXDAOGXX36pXFtnlHWJcr3mmmsq1/yBfiwmyH4WoGxpO7u+sTPGzB8zN0jgJjv0n4uYhYCOEE/BZuWmPKtg51deeaVyTYau/5K6yO0FbxBKdtK0nu3IqaeeWh2Z7QBtJ3VoUadmGrPoDD1I4IbDU2XmWrJnvm2ETho3JM6zccPOX1/ytE9p5Nujjz66eayGSnM7ox/THTTXHfDnmG2rr9WRC32UVy57m+4liEM6ShPbtL3OzeOQD34RdNd5nvwwTzgSbcw+t0lb/Dpi+ZIu5SDIk3PxSVReTqLN1hyTDueIy3Hb9Baegu3TPxdWkA66E191Bz/NqybNaCtkFZJNm5Bc0Q89Y5lxnJcZIEMsF/IWsi366nwsN2SVfRVW4fK8ojykx9P1EqSpciAcaZJ2Hch72223pePLL788xVO5RN1IK9pS9YDzhC9dr5QJbuLHuBH0VB7YIdY/zpXqGig/4sXrqWtdqKNJ566MwjZRbvaKR9pXXnllmtLDP+dynvSFdFe8eE50rUtd0qqDctB1RVzVKYF+w7QXnNf1UoqfQ3661qgryltuIH6sO5QLYfDDZvEcjLOcm2QROq+4deVz8803Lz377LOVyxizUPBnasOwc+fO4x9++GE6PnLkSHKLP/744/jy8vLxV199Nbl1/tprr01uIC5iHD58OLnZ496/f39yw9raWvJbXV2tfE70w00c/A4cOJDSIb/du3f3yVQHMkW51tfX+9InLaUtmnQvgYyEkT2k+8rKSnKD8mEv0AHdsCdy4caugvSQnfNspBdthS0IT1ydj3m0xS9BeJUtcUgb3aQLfqSPrNGu+KmcRBdbE0duwpN3tFGObJuHIa7OKT/8OMZPukc5KTdQ+eGHfhHkUTjZQuUsefFTGCCvWC7YibRx6zz203nJo7yRUXWBsOgl3QgrCE84wnAseQgXy5m4yCibscdNWOVZgnCkpXig61h+si95AHZAHvzYS2fpSFnncaPtsBU6KZzCIKvAX+lFyC+3BXrKrbQIw3FMJ8qQ06azwI9zdQxrm7brHUoykK7iAfVXMgjS61KXuqRVQvoQH7uhC2XDprTYx/zQS3EEtpJbMkp/5Mat6xN/0o/tVITwCkM8dMAtWbEHkI/8CIP8pIkf5aNzkmOc5dwkCwxSPqTHOfIzxiwWQw8SaDzU0EBsSGh48kaHxok4aux0s4/gR5gIbjVwIvdTo0iDKeTXBnmyCeQjXmyUaVRjGM7X6V6Cxj+3Bzce/IUaZN0cgDC6oYFsKNAxTzfKEm+wgH2Ir3zb4pfADtgjktsQSn55mXSxNcdRJvSJNspRHjHNCOcII2T32KErlYXSjfbkONqP49w20lE2lzumoxu1ZCZsrBvIlsuDXdrKAXnya0xpRRuo0x2RTLH+5ZTsRHjqnVCdi/nJljFeKS35xbi5jqD0Yj2Rn8C2dbaQjsqvrS7kdNEZSn45krtkh5JfTK/teoc8DuHxizoDcfBXnexSl7qmVUJ6R6SjrjFdOzGdQdoLyiler5Dfl0qQZn6tSV7lJVlL7afOSQ5Q/OhXCie/WGZt5aw4uSyDlo/C522DMWb+GXq6Ua9hSR+b6TUnr23Fe++9l+Yq8zpT2zPPPJPO/fDDD2l/2mmnFVfG6N2IqqPBKc3Dja+au8CHjj37pD268Vo5X5WkSfcSrMhy9tlnV64N+IBW8esgzH333Zd04JW3bCj42Jk0OMcrbJAsxGFqAfZUGZx++unpnPRpit9Eyc5Nr+zr6GJrXnkjH6/EyYOP6pq+Nfjss8/SftAPVksfYX7xxRfV0dLS3XffvdS7Ofd9qPvuu++m8hHUeaYjRJCj18HYXJXnk08+Sfv48TZpyA6ALdg0LeGOO+5I/jmlclD6QBr5B6G5ntQTrsMLL7yw8tmAFU6Aa3kQ0IV6q2kPl156aXVmfEjWpg9ysQt6xjbphhtuSOc0bUS01YWcaeic0+V6L0EdhvPOOy/txZ133pn2qk9d6lLXtLrCdY4+apuGbS+63JfqyK+13sAh7fM6d8YZZ1RH42GQcs5lGbR81EZ98803aW+MWRyGHiTQSDMnlfnfzGtkjmRkdXU1Nej5pk7oY489ljpdmg/Jjfqrr75auvfee5N7mtAQo9P777+f9NMNQbTpPiq4OXIjfPjhh5euuOKKZNMINz/dGLhpcHPMO+ulMvjpp5/SuS7xu9LUEWmizdZ0wD744IPU+T/33HNr58+OGzoJ1F06GZQLdvr2229PGIzQWcwpdeabIG0GBwwuzjrrrKU333yzOjMYdCbywWkdf//9d3W0waAyR+goU1Z0oCaxZG4ccDVB3SpdD3VLhQ7CpHWuo6SfrvcmWIY0kg8ABqlLbWkNAm1DZNj2ou2+1JX8up80JR26lDOMsnyMMfPJSFY3omGlYaJjz1O52Fl+5513qqP/ofNDIw80socOHUodLZ6G8FEdHytPe3lK5ONDTAYBDAbqnlo36V4CPXNIvw5sRSeRDhBriNfdxDhPJ2dtbS2FY1ARKckV/drij5Outsaf5VTpLPMhXelDvknwyCOPpP1rr72W1qK/6aabkjtSejsGDIgj+dNrUH1g+VY6mj/++GPq9AxzEy/VuxJ1T+F54zcIdMp4AMD/E7DkbdcO/DBoYNu2Qg5PShU2Muwgfxo619F2vdfx22+/VUf9RJt2rUtd0uoK5aU6OIr2ou2+1JVSPZokWy1nGGX5GGPmk6EHCfEJDR17nui89NJLyc0rX54s553gF154Yen8889PxzTKvP4lDE9BeAJbN0CITznH3ThrWkHTk6Um3Utwnukm8UaEHkePHq1cJ8Lrb57e3X777ZXPifD0UvZg0PXiiy8mu5MPN0o6pk899VSfzXgK/t1336XjpviTYFBbs6wlA8l82lXkqquuSvtx6EDnj6lmvE14/fXXT5CbcyX7YWOF1f9hsMJMhLLQtUFnltWZhnmaD7wdYrARyz9H9QSdYjgdlwZCTfAE95JLLpnok1YGbHD11VenfQk9cX7yySfTXgw7QIBp6JzT5XovIbvk7dc///yT9rJpl7rUNa2uIDvXk+rgsO1Fl/tSV1TnNNVtUmy1nGHQ8lH60xz0GmOmw9CDBJ7QqLGlgeKpujpoNJzcVFgikSfTNNzseVKhjg8NPp0h/LURLnZcgXTowHAzJz+e4gI3ZnXG9IQrds40sFADWIJ8kJtNeeppinRjr/PIhq5NupfgtTjceOON6amW7HHrrbcmf/j+++/79ieffHLav/3222mPbugM2IINHR988MEkA2BTbiC64fGmhpsir93Jl415xcyvh7b4ObIX08JiGek47nO7luhia3TGXvixUda62ZVQJ7xU7np6H5+Iyt7qgIDi5lNw4KGHHkqDt1J5awod08NkU/Tg7YLeQnCTR37VfXRjmheyqZNJGjzxRF/SUR1AVl0fXcqBzgCyko/k+fjjj9P+2LFjm/bgTRLh6EATl41j3mQ1dchUR7EdcaijPPVFLtLGD3mB/NBVxxDLKK//oPMKL0hfnXvyxH6HDx/u68yojKUjttUAj+kqsjs20h+dDVoXRBedJUfb0/hhbNN2vQN1K7Yj2GVlZSXVR8lNXaETeuDAgU2bdqlLXdNqQvWbeJQX6akODttedLkv1ZHrRJsedVLZvPzyy2kfKZXfOMu5TpZBy0ffaTDVVWCvXbt2JdsaY+aY40PCag+9G05a/YB9vgJCr2O0uWoC5+PqDMBKCr0GO22EiVuvUa9CbazUoHyUh/IjD8LGuORT8isRw7CRFytFKD578iAv8tRqEW26l2BFCelK/LiSBPJJBuULpIubeMhGGriVH6t1kJbi5ekCYZQv6cbzXeJHFE6bVtFo8xPSU3SxNauRxDpCnSJeE4TPyzyXi/xKdq8riwh+dTJgP84rPvKiV4S46MX5Uv1Bd/zZKCPic6x8lba2unKAWO+Ir/qAnlGuGE4ytdkZpId0QH+lozSoV/jltmFDjtwPd105kAZ5IiP+pC1dRZ6eziOL6hf+pCMdt1oXoE3nUvmUyOUe1DbQdL0DdUvnYvmSpuxCfNLJ6VqXuqSVo7JR+qV4hCFf5b+V9oI4TfelEuRFmso7j8ex8mMjnMjP4VY6TX64m9KtK+emOIIwXcoHf8JF+2E74kQ/Y8z8cRI/vUZiavAUiNUXeLIa4YnULbfckp4QmfmCJ3dMsxl31aNuPf/88+kbC2OMGQaengPfOSwSvMG56KKLpv6doDFm8ozkw+WtwhQBXvnmAwTglejy8nLlMvPGJMqWm9vu3bs3p6SYEcMAfm2tcvTgeJHcxsw5PKxbX1/3AMGYBWWqbxLovLEi0P79+9MazVq3+ffff0/zr1nRhcGCmX343wDm+7711lvp+wc+Qmya5z4qmDPLKkGrq6uuS6OGDvPevSwVs+Het29jvwjuwoMNM7/QjjD3n4cOvEkYdjGBWQCd+Sbp4MGDC6GvMeZEpj7diIHCG2+8sfknUzTCfHzFB55dPnAzswEfh/Kx6M6dO6eyxC0f6LFqh+vUiGGRgFF2vmEW3Hysu2fPhtvMNbzxZsnVyJEjR4pvwOcFPmTmI3zaTA8QjFlcpj5IMMbMOJqCo07zIrh37OAfvjbcxhhjzBziQYIxxhhjjDGmj6l+uGyMMcYYY4zZfniQYIwxxhhjjOnDgwRjjDHGGGNMHx4kGGOMMcYYY/rwIMEYY4wxxhjThwcJxhhjjDHGmD48SDDGGGOMMcb04UGCMcYYY4wxpg8PEowxxhhjjDF9eJBgjDHGGGOM6cODBGOMMcYYY0wfHiQYY4wxxhhj+vAgwRhjjDHGGNOHBwnGGGOMMcaYwNLSfzYx54NJDAfuAAAAAElFTkSuQmCC;" vertex="1" parent="WIyWlLk6GJQsqaUBKTNV-1">
          <mxGeometry x="50" y="-260" width="777" height="366" as="geometry" />
        </mxCell>
      </root>
    </mxGraphModel>
  </diagram>
</mxfile>
